<?xml version="1.0" encoding="utf-8"?>
<!-- Generator: Adobe Illustrator 16.0.0, SVG Export Plug-In . SVG Version: 6.00 Build 0)  -->
<!DOCTYPE svg PUBLIC "-//W3C//DTD SVG 1.1//EN" "http://www.w3.org/Graphics/SVG/1.1/DTD/svg11.dtd">
<svg version="1.1" id="Layer_1" xmlns="http://www.w3.org/2000/svg" xmlns:xlink="http://www.w3.org/1999/xlink" x="0px" y="0px"
	 width="612px" height="480.52px" viewBox="0 0 612 480.52" enable-background="new 0 0 612 480.52" xml:space="preserve">
<path fill="#369647" d="M357.897,40.125c-17.725,0-34.535,2.14-51.042,6.725c87.415,22.616,152.52,101.168,154.048,194.696v7.949
	c-2.143,55.016-47.99,99.028-103.007,99.028c-18.644,0-36.371-4.89-51.042-13.755c-30.871-17.727-51.35-50.736-51.35-89.247
	c0-38.514,20.785-70.911,51.044-89.25c-14.977-8.865-32.399-13.754-51.044-13.754c-55.627,0-100.559,44.012-102.393,99.029v7.949
	c1.529,94.139,66.633,172.691,154.049,194.699c16.504,4.277,33.619,6.722,51.042,6.722c113.397,0,205.093-92,205.093-205.09
	C563.297,132.124,471.295,40.125,357.897,40.125z"/>
<path fill="#AFD136" d="M460.289,241.546c-1.527-94.14-66.627-172.692-154.045-194.696c-16.505-4.281-33.622-6.725-51.043-6.725
	c-113.396,0-205.397,91.999-205.397,205.397c0,113.395,92,205.09,205.091,205.09c17.727,0,34.538-2.14,51.042-6.726
	c-86.805-22.615-151.907-100.556-153.436-194.699v-3.972v-3.973c2.139-55.017,47.376-99.032,102.393-99.032
	c18.645,0,36.372,4.892,51.042,13.754c30.871,17.73,51.045,50.739,51.045,89.25c0,38.514-20.786,70.911-51.045,89.25
	c15.282,8.253,33.011,13.754,51.654,13.754c55.63,0,100.561-44.015,102.394-99.032v-3.972
	C460.289,244.298,460.289,242.77,460.289,241.546L460.289,241.546z"/>
<linearGradient id="SVGID_1_" gradientUnits="userSpaceOnUse" x1="142.1372" y1="72.7754" x2="142.1372" y2="300.101" gradientTransform="matrix(1.8 0 0 1.8 -0.7998 -89.6893)">
	<stop  offset="0" style="stop-color:#010101;stop-opacity:0.6"/>
	<stop  offset="0.6" style="stop-color:#010101;stop-opacity:0.1"/>
</linearGradient>
<path opacity="0.15" fill="url(#SVGID_1_)" enable-background="new    " d="M460.289,241.546
	c-1.527-94.14-66.627-172.692-154.045-194.696c-16.505-4.281-33.622-6.725-51.043-6.725c-113.396,0-205.397,91.999-205.397,205.397
	c0,113.395,92,205.09,205.091,205.09c17.727,0,34.538-2.14,51.042-6.726c-86.805-22.615-151.907-100.556-153.436-194.699v-3.972
	v-3.973c2.139-55.017,47.376-99.032,102.393-99.032c18.645,0,36.372,4.892,51.042,13.754c30.871,17.73,51.045,50.739,51.045,89.25
	c0,38.514-20.786,70.911-51.045,89.25c15.282,8.253,33.011,13.754,51.654,13.754c55.63,0,100.561-44.015,102.394-99.032v-3.972
	C460.289,244.298,460.289,242.77,460.289,241.546L460.289,241.546z"/>
<linearGradient id="SVGID_2_" gradientUnits="userSpaceOnUse" x1="199.4478" y1="299.0239" x2="199.4477" y2="71.8943" gradientTransform="matrix(1.8 0 0 1.8 -0.7998 -89.6893)">
	<stop  offset="0" style="stop-color:#010101;stop-opacity:0.6"/>
	<stop  offset="0.6" style="stop-color:#010101;stop-opacity:0.1"/>
</linearGradient>
<path opacity="0.15" fill="url(#SVGID_2_)" enable-background="new    " d="M357.897,40.125c-17.725,0-34.535,2.14-51.042,6.725
	c87.415,22.616,152.52,101.168,154.048,194.696v7.949c-2.143,55.016-47.99,99.028-103.007,99.028
	c-18.644,0-36.371-4.89-51.042-13.755c-30.871-17.727-51.35-50.736-51.35-89.247c0-38.514,20.785-70.911,51.044-89.25
	c-14.977-8.865-32.399-13.754-51.044-13.754c-55.627,0-100.559,44.012-102.393,99.029v7.949
	c1.529,94.139,66.633,172.691,154.049,194.699c16.504,4.277,33.619,6.722,51.042,6.722c113.397,0,205.093-92,205.093-205.09
	C563.297,132.124,471.295,40.125,357.897,40.125z"/>
<linearGradient id="SVGID_3_" gradientUnits="userSpaceOnUse" x1="113.0752" y1="207.7388" x2="151.7789" y2="332.1941" gradientTransform="matrix(1.8 0 0 1.8 -0.7998 -89.6893)">
	<stop  offset="0" style="stop-color:#010101;stop-opacity:0.5"/>
	<stop  offset="0.75" style="stop-color:#010101;stop-opacity:0.03"/>
</linearGradient>
<path opacity="0.4" fill="url(#SVGID_3_)" enable-background="new    " d="M306.244,444.195
	c-86.805-22.62-151.907-100.561-153.436-194.699v-0.612v1.528c1.222,79.773,29.647,150.685,74.272,198.672
	c9.475,1.224,18.645,2.141,28.12,2.141C272.622,450.612,290.351,448.472,306.244,444.195z"/>
<linearGradient id="SVGID_4_" gradientUnits="userSpaceOnUse" x1="89.9653" y1="157.7866" x2="201.8124" y2="157.7866" gradientTransform="matrix(1.8 0 0 1.8 -0.7998 -89.6893)">
	<stop  offset="0" style="stop-color:#010101;stop-opacity:0.9"/>
	<stop  offset="0.6" style="stop-color:#010101;stop-opacity:0.1"/>
</linearGradient>
<path opacity="0.25" fill="url(#SVGID_4_)" enable-background="new    " d="M153.725,242.158
	c15.895-52.877,70.912-83.747,125.011-68.771c1.528,0.611,3.975,1.224,5.503,1.528c6.723-7.03,14.364-13.143,22.618-18.032
	c-14.977-8.865-32.399-13.754-51.044-13.754c-55.627,0-100.559,44.012-102.393,99.029v3.364
	C152.809,244.298,153.113,243.074,153.725,242.158z"/>
</svg>
