<?xml version="1.0" encoding="utf-8"?>
<!-- Generator: Adobe Illustrator 17.0.0, SVG Export Plug-In . SVG Version: 6.00 Build 0)  -->
<!DOCTYPE svg PUBLIC "-//W3C//DTD SVG 1.1//EN" "http://www.w3.org/Graphics/SVG/1.1/DTD/svg11.dtd">
<svg version="1.1" id="Capa_1" xmlns="http://www.w3.org/2000/svg" xmlns:xlink="http://www.w3.org/1999/xlink" x="0px" y="0px"
	 width="32px" height="32px" viewBox="0 0 32 32" enable-background="new 0 0 32 32" xml:space="preserve">
<g>
	<path d="M22.198,16.286c-0.064-0.059-0.119-0.084-0.168-0.104c-0.488-0.204-1.018,1.474-1.018,1.474
		c-0.124,0.426,0.127,0.414,0.127,0.414c0.23,0.015,0.571-0.37,0.637-0.472c0.066-0.102,0.165-0.417,0.165-0.417
		c0.076-0.255,0.166-0.524,0.265-0.797l0,0C22.231,16.319,22.204,16.293,22.198,16.286"/>
	<path d="M16.536,17.551c0.007-0.074-0.04-0.088-0.082-0.071c-0.041,0.016-0.088,0.059-0.088,0.059
		c-0.475,0.434-0.804,1.423-0.828,1.497c0,0-0.006,0.015,0.004,0.02c0.004,0.002,0.011,0.002,0.023-0.008c0,0,0,0.001,0,0.001
		C16.477,18.262,16.536,17.551,16.536,17.551"/>
	<path d="M13.009,17.824c-0.099,0.017-0.135,0.178-0.135,0.178c-0.09,0.37,0.154,0.522,0.154,0.522
		c0.023,0.014,0.042,0.024,0.062,0.034c0.006,0.002,0.037,0.012,0.048-0.029c0.086-0.328,0.07-0.477,0.07-0.477
		C13.179,17.801,13.009,17.824,13.009,17.824"/>
	<path d="M24.326,15.811c-0.026-0.038-0.048,0.014-0.048,0.014h0c-0.22,0.591-0.419,0.949-0.488,1.065c0,0-0.026,0.046-0.009,0.083
		c0.151,0.331,0.6,0.23,0.6,0.23c0.473-0.138,0.375-0.61,0.375-0.61C24.702,16.384,24.481,16.037,24.326,15.811"/>
	<path d="M26.361,16.835c-0.028,0-0.048,0.003-0.059,0.006v0.132h0.05c0.059,0,0.107-0.02,0.107-0.067
		C26.46,16.863,26.429,16.835,26.361,16.835"/>
	<path d="M26.373,16.624H26.37c-0.199,0-0.353,0.165-0.353,0.367c0,0.205,0.154,0.367,0.359,0.367
		c0.199,0.003,0.35-0.163,0.35-0.365C26.726,16.79,26.574,16.624,26.373,16.624 M26.482,17.23c-0.014-0.017-0.022-0.056-0.036-0.112
		c-0.008-0.048-0.036-0.07-0.095-0.07H26.3v0.182h-0.106v-0.46c0.042-0.006,0.101-0.014,0.177-0.014
		c0.087,0,0.126,0.014,0.157,0.036c0.028,0.02,0.048,0.053,0.048,0.098c0,0.056-0.042,0.093-0.095,0.109v0.006
		c0.045,0.014,0.067,0.05,0.081,0.112c0.014,0.07,0.025,0.095,0.034,0.112H26.482z"/>
	<path d="M31.396,23.534V8.641c0-0.863-0.785-1.138-0.785-1.138L16.998,4.209c-1.035-0.216-1.908,0-1.908,0L1.668,7.513L1.397,7.578
		c0,0-0.738,0.258-0.783,1.062C0.605,8.731,0.609,8.789,0.609,8.789L0.604,23.318c0,1.138,0.908,1.295,0.908,1.295l13.598,3.195
		c0.903,0.177,1.889,0,1.889,0l13.476-3.195C31.416,24.437,31.396,23.534,31.396,23.534 M20.761,6.321l0.001,0.007
		C20.761,6.326,20.761,6.324,20.761,6.321L20.761,6.321z M20.253,11.575L20.253,11.575l0.408-2.693c0-0.002,0.018-0.104,0.107-0.104
		h1.059c0.091,0,0.109,0.103,0.109,0.103l0.418,2.456c0.018,0.109-0.089,0.121-0.089,0.121v0c-0.221,0.021-0.44,0.043-0.656,0.065v0
		c-0.087,0.009-0.106-0.081-0.106-0.081v0l-0.034-0.226c-0.049-0.313-0.097-0.742-0.141-1.235l0,0
		C21.32,9.901,21.305,9.9,21.304,9.9c-0.015,0-0.021,0.04-0.023,0.064c-0.045,0.605-0.07,0.832-0.121,1.252l-0.035,0.262
		c-0.013,0.094-0.101,0.107-0.101,0.107l0,0c-0.232,0.026-0.46,0.052-0.686,0.079v0C20.239,11.676,20.253,11.575,20.253,11.575
		 M18.761,8.875c0.003-0.022,0.018-0.097,0.102-0.097l0-0.001h0.754l0,0.001c0.085,0,0.1,0.077,0.103,0.098v2.734
		c0,0.134-0.101,0.145-0.101,0.145v0c-0.261,0.034-0.518,0.069-0.77,0.105l0,0c-0.084,0.012-0.087-0.083-0.087-0.083V8.875z
		 M15.586,8.881c0,0,0.003-0.1,0.106-0.104h1.136c0.775,0,1.091,0.079,1.3,0.341c0.225,0.271,0.283,0.612,0.283,1.678v1.037
		c0,0.089-0.087,0.103-0.087,0.103l0,0c-0.264,0.04-0.524,0.08-0.778,0.122l0,0c-0.087,0.014-0.093-0.095-0.093-0.095v-1.49
		c0-0.769-0.117-0.926-0.675-0.926h-0.146c-0.087,0-0.087,0.099-0.087,0.099v2.478c0,0.11-0.1,0.125-0.1,0.125l0,0
		c-0.259,0.048-0.512,0.096-0.759,0.145v0c-0.094,0.019-0.099-0.101-0.099-0.101V8.881z M12.695,8.881c0,0,0.001-0.099,0.103-0.104
		h2.36c0,0,0.112,0.002,0.112,0.104v0.731c0,0.101-0.112,0.101-0.112,0.101h-1.405c-0.101,0-0.099,0.104-0.099,0.104v1.28
		c0,0,0,0.093,0.094,0.093h1.312c0,0,0.119,0.003,0.119,0.114v0.622c0,0.111-0.119,0.112-0.119,0.112h-1.312
		c-0.093,0-0.094,0.089-0.094,0.089v0.605c0,0.107-0.099,0.133-0.099,0.133l0,0c-0.263,0.065-0.517,0.13-0.762,0.195l0,0
		c-0.095,0.025-0.097-0.086-0.097-0.086V8.881z M8.337,8.881c0,0,0.004-0.104,0.103-0.104l0,0h1.284c0,0,0.088,0,0.105,0.103
		l0.292,1.837c0.062,0.374,0.11,0.756,0.163,1.307v0c0.002,0.02,0.004,0.042,0.006,0.063c0.003,0.021,0.008,0.031,0.014-0.01
		c0.002-0.017,0.004-0.036,0.006-0.052c0,0,0,0,0-0.001c0.065-0.594,0.092-0.824,0.17-1.307l0.292-1.837
		c0-0.001,0.017-0.103,0.109-0.103h1.296c0,0,0.103,0.002,0.103,0.104v4.204c0,0.12-0.112,0.146-0.112,0.146l0,0
		c-0.235,0.067-0.46,0.133-0.677,0.2l0,0c-0.125,0.038-0.127-0.112-0.127-0.112v-1.744c0-0.261,0.011-0.765,0.026-1.197
		c-0.001,0-0.002,0-0.002,0s0.008-0.11-0.02-0.112c0,0-0.035-0.009-0.046,0.103l-0.001-0.001c-0.079,0.466-0.136,0.804-0.198,1.146
		l-0.355,2.026c-0.023,0.129-0.131,0.165-0.131,0.165l0,0c-0.202,0.068-0.396,0.136-0.58,0.202l0,0
		c-0.128,0.046-0.165-0.104-0.165-0.105l-0.41-2.367c-0.033-0.227-0.075-0.455-0.117-0.682L9.296,10.35
		c-0.002-0.012-0.004-0.023-0.006-0.035c-0.015-0.056-0.037-0.051-0.037-0.051c-0.023,0.002-0.022,0.074-0.021,0.101l0,0.009
		c0,0,0,0.001,0,0.001l0.005,0.105c0.008,0.192,0.017,0.647,0.017,0.953v2.605c0,0.17-0.137,0.226-0.137,0.226l0,0
		c-0.234,0.096-0.449,0.188-0.644,0.275v0c-0.132,0.059-0.136-0.116-0.136-0.116V8.881z M10.14,24.638
		c0.002,0.276-0.152,0.275-0.152,0.275c-0.687,0.014-1.094-0.387-1.094-0.387c-0.265-0.229-0.197-0.689-0.197-0.689
		c0.235-1.627,1.094-3.615,1.094-3.615c0.911-2.265,2.381-4.539,2.805-5.175c0.014-0.021,0.028-0.042,0.014-0.061
		c-0.009-0.013-0.026-0.011-0.036-0.008c-4.002,1.542-5.206,2.884-5.206,2.884c-0.2,0.186-0.321,0.058-0.379-0.113
		c-0.043-0.125-0.042-0.277-0.042-0.277c-0.002-0.763,0.262-1.226,0.411-1.508c0.15-0.282,0.497-0.5,0.497-0.5
		c4.823-2.625,14.227-3.576,14.227-3.576c0.368-0.038,0.465,0.028,0.465,0.028c0.15,0.094,0.243,0.211,0.243,0.211
		c0.089,0.136-0.147,0.175-0.147,0.175c-4.384,0.725-7.815,1.803-8.851,2.23c-0.064,0.027-0.111,0.083-0.123,0.099
		c-1.466,2.275-2.836,6.125-2.836,6.125C10.11,22.856,10.14,24.638,10.14,24.638 M25.414,17.217
		c-0.205,0.575-1.013,0.721-1.013,0.721c-0.632,0.116-0.905-0.274-0.972-0.391c-0.015-0.032-0.045,0-0.045,0l0,0
		c-0.418,0.485-0.658,0.724-0.658,0.724c-0.308,0.285-0.57,0.298-0.57,0.298c-0.201,0.012-0.295-0.15-0.329-0.235l0,0
		c-0.019-0.06-0.072,0-0.072,0l0,0c-0.66,0.68-1.099,0.671-1.099,0.671c-0.205-0.008-0.299-0.15-0.353-0.335l0,0
		c-0.017-0.05-0.046-0.02-0.058-0.004l-0.005,0.007c0,0.001-0.001,0.001-0.001,0.001c-0.218,0.308-0.449,0.531-0.449,0.531
		c-0.328,0.305-0.621,0.235-0.621,0.235c-0.228-0.036-0.301-0.173-0.317-0.198c-0.262-0.406,0.624-2.189,0.624-2.189
		c0.073-0.154,0.042-0.2,0.042-0.2c-0.14-0.07-0.622,0.336-0.622,0.336c-0.308,0.271-0.47,0.525-0.62,0.917
		c-0.029,0.076-0.039,0.124-0.039,0.124c-0.178,0.765-0.342,1.371-0.342,1.371c-0.063,0.232-0.242,0.353-0.242,0.353
		c-0.442,0.313-0.702,0.261-0.702,0.261c-0.134-0.028-0.024-0.266-0.024-0.266c0.162-0.386,0.296-0.785,0.417-1.157
		c0.051-0.157-0.04-0.005-0.04-0.005v0c-0.634,1.051-1.43,1.795-1.43,1.795c-0.328,0.297-0.757,0.158-0.781,0.15
		c-0.153-0.04-0.258-0.185-0.307-0.326l0,0c-0.015-0.039-0.048,0.003-0.048,0.003c-0.383,0.491-0.797,0.866-0.797,0.866
		c-0.239,0.218-0.481,0.223-0.481,0.223c-0.305,0.006-0.288-0.445-0.288-0.445c0.047-0.786,0.683-1.756,0.683-1.756
		c0.031-0.046-0.007-0.092-0.007-0.092c-0.019-0.024-0.06-0.017-0.06-0.017c-0.143,0.031-0.269,0.046-0.378,0.05h0
		c-0.053,0.003-0.077,0.064-0.077,0.064h0c-0.767,2.005-1.509,2.566-1.509,2.566c-0.23,0.19-0.402,0.166-0.402,0.166
		c-0.552-0.057-0.492-0.591-0.492-0.591c0.001-0.128,0.138-0.166,0.138-0.166c1.092-0.402,1.741-1.871,1.741-1.871
		c0.023-0.05,0.045-0.099,0.066-0.146c0.038-0.09-0.021-0.122-0.021-0.122l0.001-0.001c-0.817-0.479-0.352-1.476-0.352-1.476
		c0.163-0.338,0.466-0.396,0.466-0.396c0.229-0.063,0.402,0.029,0.402,0.029c0.491,0.206,0.224,1.268,0.224,1.268
		c-0.005,0.027-0.008,0.039-0.01,0.049c-0.003,0.021,0.001,0.039,0.028,0.038c0.336-0.03,0.588-0.208,0.588-0.208
		c0.113-0.075,0.163-0.017,0.205,0.04c0.042,0.057,0.128,0.316,0.147,0.402c0.019,0.086-0.04,0.195-0.04,0.195
		c-0.315,0.516-0.626,1.142-0.626,1.142c-0.028,0.06-0.047,0.112-0.061,0.158c-0.012,0.045-0.051,0.221,0.058,0.241
		c0,0,0.089,0.016,0.236-0.106c0,0,0.346-0.298,0.545-0.524c0,0,0.044-0.043,0.047-0.129l0,0c0.013-0.665,0.31-1.36,0.31-1.36
		c0.585-1.265,1.284-1.434,1.284-1.434c0.302-0.117,0.524,0,0.524,0c0.171,0.077,0.175,0.274,0.175,0.274
		c-0.004,0.64-0.433,1.267-0.433,1.267c-0.366,0.56-0.778,0.892-0.968,1.05c0,0-0.031,0.027-0.019,0.061
		c0.047,0.137,0.099,0.172,0.099,0.172c0.136,0.097,0.419-0.209,0.419-0.209c0.817-0.833,1.491-2.127,1.719-2.601
		c0.057-0.119,0.067-0.166,0.068-0.167c0.025-0.094,0.043-0.269,0.043-0.269c0.011-0.174,0.508-0.336,0.508-0.336
		c0.259-0.069,0.17,0.35,0.17,0.35c-0.024,0.111-0.021,0.091-0.055,0.235l-0.013,0.056c0,0-0.02,0.083,0.013,0.03
		c0.273-0.381,0.641-0.676,0.641-0.676c0.478-0.355,0.776-0.16,0.776-0.16c0.357,0.187,0.005,0.994,0.005,0.994
		c-0.255,0.622-0.359,0.977-0.359,0.977c-0.138,0.437,0.034,0.452,0.034,0.452c0.158,0.028,0.443-0.311,0.573-0.481
		c0.038-0.049,0.044-0.118,0.044-0.118h0c0.027-0.275,0.081-0.497,0.081-0.497c0.448-1.62,1.437-1.93,1.437-1.93
		c0.283-0.096,0.525,0.013,0.643,0.116l0,0c0,0,0.038,0.033,0.062-0.024h0c0.68-1.69,1.542-3.342,1.542-3.342
		c0.131-0.25,0.308-0.337,0.308-0.337c0.641-0.347,0.977-0.115,0.977-0.115c0.143,0.074-0.19,0.456-0.19,0.456
		c-1.315,1.451-2.64,5.116-2.64,5.116c-0.089,0.258,0.031,0.281,0.031,0.281c0.145,0.044,0.492-0.379,0.492-0.379
		c0.385-0.443,0.857-1.574,0.994-1.957c0.018-0.051,0.001-0.101,0.001-0.101l0.001,0c-0.116-0.367-0.019-0.643-0.019-0.643
		c0.195-0.589,0.666-0.493,0.666-0.493c0.448,0.082,0.168,1.042,0.168,1.042c-0.037,0.122-0.009,0.194-0.009,0.194
		c0.141,0.361,0.533,1.185,0.533,1.185C25.513,16.904,25.414,17.217,25.414,17.217 M26.373,17.454c-0.264,0-0.474-0.205-0.474-0.463
		c0-0.258,0.21-0.46,0.474-0.46h0.003c0.261,0,0.468,0.202,0.468,0.46C26.844,17.25,26.636,17.454,26.373,17.454"/>
</g>
</svg>
