<?xml version="1.0" encoding="utf-8"?>
<!-- Generator: Adobe Illustrator 16.0.0, SVG Export Plug-In . SVG Version: 6.00 Build 0)  -->
<!DOCTYPE svg PUBLIC "-//W3C//DTD SVG 1.1//EN" "http://www.w3.org/Graphics/SVG/1.1/DTD/svg11.dtd">
<svg version="1.1" id="Layer_1" xmlns="http://www.w3.org/2000/svg" xmlns:xlink="http://www.w3.org/1999/xlink" x="0px" y="0px"
	 width="287px" height="340px" viewBox="0 0 287 340" enable-background="new 0 0 287 340" xml:space="preserve">
<g display="none">
	<rect x="44" y="280" display="inline" fill="#CCCCCC" width="199" height="48"/>
	<rect x="44" y="12" display="inline" fill="#CCCCCC" width="199" height="48"/>
	<rect x="183" y="97" display="inline" fill="#CCCCCC" width="60" height="177"/>
	<rect x="51" y="68" display="inline" width="185" height="21"/>
	<g display="inline">
		<rect x="44" y="97" fill="#CCCCCC" width="132" height="177"/>
		<rect x="53" y="249" width="114" height="21"/>
	</g>
	<rect x="189" y="102" display="inline" width="49" height="49"/>
	<rect x="5" y="21" display="inline" width="29" height="138"/>
	<rect x="253" y="21" display="inline" width="29" height="138"/>
	<g display="inline">
		<path fill="#FFFFFF" d="M125.418,78.903c0-0.374,0.071-0.724,0.215-1.05c0.143-0.326,0.337-0.61,0.583-0.853
			c0.245-0.242,0.537-0.433,0.874-0.572c0.337-0.14,0.7-0.209,1.089-0.209c0.411,0,0.788,0.075,1.133,0.225s0.641,0.365,0.886,0.644
			c0.246,0.279,0.438,0.622,0.578,1.029c0.139,0.407,0.209,0.863,0.209,1.369c0,0.792-0.07,1.483-0.209,2.074
			c-0.14,0.59-0.336,1.082-0.589,1.474c-0.253,0.392-0.556,0.684-0.907,0.875c-0.353,0.19-0.745,0.286-1.178,0.286
			c-0.513,0-0.975-0.128-1.386-0.385c-0.41-0.257-0.723-0.612-0.935-1.067l0.483-0.44c0.146,0.374,0.389,0.673,0.727,0.897
			c0.337,0.223,0.711,0.335,1.122,0.335c0.322,0,0.615-0.077,0.88-0.231c0.264-0.154,0.489-0.376,0.677-0.666
			c0.187-0.29,0.333-0.646,0.439-1.067c0.106-0.421,0.159-0.903,0.159-1.446c-0.161,0.433-0.438,0.777-0.83,1.034
			c-0.393,0.256-0.838,0.385-1.337,0.385c-0.374,0-0.724-0.068-1.05-0.204c-0.326-0.135-0.61-0.322-0.853-0.561
			c-0.242-0.238-0.433-0.519-0.572-0.841S125.418,79.27,125.418,78.903z M128.168,76.879c-0.278,0-0.541,0.053-0.786,0.16
			c-0.246,0.106-0.462,0.251-0.649,0.435c-0.187,0.183-0.334,0.398-0.439,0.644c-0.106,0.246-0.16,0.508-0.16,0.786
			c0,0.279,0.056,0.541,0.165,0.787c0.11,0.246,0.257,0.46,0.44,0.644c0.183,0.184,0.397,0.328,0.644,0.435
			c0.245,0.106,0.508,0.159,0.786,0.159s0.543-0.053,0.792-0.159s0.468-0.251,0.654-0.435c0.188-0.183,0.334-0.398,0.44-0.644
			s0.159-0.508,0.159-0.787c0-0.271-0.055-0.53-0.165-0.775c-0.109-0.246-0.259-0.462-0.445-0.649
			c-0.188-0.187-0.403-0.333-0.649-0.44C128.709,76.932,128.446,76.879,128.168,76.879z"/>
		<path fill="#FFFFFF" d="M136.055,76.78h-4.213v-0.693h5.401l-3.949,7.81h-0.858L136.055,76.78z"/>
		<path fill="#FFFFFF" d="M143.535,79.277c0,0.484-0.07,0.93-0.209,1.336c-0.14,0.407-0.332,0.759-0.578,1.056
			c-0.245,0.297-0.537,0.528-0.874,0.693c-0.338,0.165-0.704,0.248-1.101,0.248c-0.396,0-0.763-0.083-1.1-0.248
			c-0.338-0.165-0.629-0.396-0.875-0.693c-0.245-0.297-0.438-0.649-0.577-1.056c-0.14-0.407-0.209-0.852-0.209-1.336
			s0.069-0.929,0.209-1.336c0.14-0.407,0.332-0.759,0.577-1.056c0.246-0.297,0.537-0.529,0.875-0.698
			c0.337-0.168,0.704-0.253,1.1-0.253s0.763,0.084,1.101,0.253c0.337,0.169,0.629,0.401,0.874,0.698
			c0.246,0.297,0.438,0.649,0.578,1.056C143.465,78.348,143.535,78.793,143.535,79.277z M142.775,79.277
			c0-0.396-0.049-0.755-0.148-1.078c-0.099-0.323-0.236-0.6-0.412-0.831c-0.176-0.231-0.387-0.411-0.633-0.539
			c-0.245-0.128-0.515-0.192-0.809-0.192c-0.301,0-0.573,0.064-0.819,0.192s-0.456,0.308-0.633,0.539
			c-0.176,0.231-0.313,0.508-0.412,0.831c-0.099,0.323-0.148,0.682-0.148,1.078s0.05,0.755,0.148,1.078
			c0.098,0.323,0.236,0.6,0.412,0.831c0.177,0.231,0.387,0.409,0.633,0.534s0.519,0.188,0.819,0.188
			c0.294,0,0.563-0.062,0.809-0.188s0.457-0.303,0.633-0.534c0.176-0.231,0.313-0.508,0.412-0.831
			C142.727,80.032,142.775,79.673,142.775,79.277z"/>
		<path fill="#FFFFFF" d="M145.098,76.769l1.715,2.244l0.088,0.165l0.1-0.165l1.705-2.244h0.804l-2.188,2.882l2.188,2.849h-0.804
			L147,80.267l-0.1-0.154l-0.088,0.154l-1.705,2.233h-0.813l2.188-2.849l-2.188-2.882H145.098z"/>
		<path fill="#FFFFFF" d="M150.068,78.903c0-0.374,0.07-0.724,0.215-1.05c0.143-0.326,0.337-0.61,0.583-0.853
			c0.245-0.242,0.536-0.433,0.874-0.572c0.337-0.14,0.699-0.209,1.089-0.209c0.411,0,0.788,0.075,1.133,0.225
			s0.642,0.365,0.886,0.644c0.246,0.279,0.438,0.622,0.578,1.029c0.139,0.407,0.209,0.863,0.209,1.369
			c0,0.792-0.07,1.483-0.209,2.074c-0.14,0.59-0.336,1.082-0.589,1.474c-0.253,0.392-0.556,0.684-0.907,0.875
			c-0.353,0.19-0.744,0.286-1.178,0.286c-0.514,0-0.975-0.128-1.386-0.385c-0.41-0.257-0.724-0.612-0.935-1.067l0.482-0.44
			c0.146,0.374,0.389,0.673,0.727,0.897c0.338,0.223,0.711,0.335,1.123,0.335c0.321,0,0.614-0.077,0.879-0.231
			c0.265-0.154,0.489-0.376,0.678-0.666c0.187-0.29,0.332-0.646,0.438-1.067c0.106-0.421,0.159-0.903,0.159-1.446
			c-0.161,0.433-0.438,0.777-0.83,1.034c-0.393,0.256-0.838,0.385-1.337,0.385c-0.374,0-0.724-0.068-1.05-0.204
			c-0.326-0.135-0.61-0.322-0.854-0.561c-0.242-0.238-0.433-0.519-0.572-0.841C150.137,79.616,150.068,79.27,150.068,78.903z
			 M152.818,76.879c-0.278,0-0.541,0.053-0.786,0.16c-0.246,0.106-0.462,0.251-0.649,0.435c-0.188,0.183-0.334,0.398-0.439,0.644
			s-0.159,0.508-0.159,0.786c0,0.279,0.056,0.541,0.165,0.787s0.257,0.46,0.439,0.644c0.184,0.184,0.397,0.328,0.645,0.435
			c0.244,0.106,0.508,0.159,0.785,0.159c0.279,0,0.543-0.053,0.793-0.159c0.248-0.106,0.468-0.251,0.654-0.435
			c0.188-0.183,0.334-0.398,0.439-0.644s0.159-0.508,0.159-0.787c0-0.271-0.056-0.53-0.165-0.775
			c-0.109-0.246-0.26-0.462-0.445-0.649c-0.188-0.187-0.402-0.333-0.648-0.44C153.359,76.932,153.098,76.879,152.818,76.879z"/>
		<path fill="#FFFFFF" d="M162.279,79.277c0,0.484-0.07,0.93-0.209,1.336c-0.141,0.407-0.332,0.759-0.578,1.056
			c-0.245,0.297-0.537,0.528-0.874,0.693c-0.338,0.165-0.704,0.248-1.101,0.248s-0.764-0.083-1.101-0.248
			c-0.338-0.165-0.629-0.396-0.875-0.693c-0.245-0.297-0.438-0.649-0.577-1.056c-0.14-0.407-0.209-0.852-0.209-1.336
			s0.069-0.929,0.209-1.336c0.141-0.407,0.332-0.759,0.577-1.056c0.246-0.297,0.537-0.529,0.875-0.698
			c0.337-0.168,0.704-0.253,1.101-0.253c0.396,0,0.763,0.084,1.101,0.253c0.337,0.169,0.629,0.401,0.874,0.698
			c0.246,0.297,0.438,0.649,0.578,1.056C162.209,78.348,162.279,78.793,162.279,79.277z M161.52,79.277
			c0-0.396-0.049-0.755-0.147-1.078c-0.099-0.323-0.235-0.6-0.412-0.831c-0.176-0.231-0.387-0.411-0.633-0.539
			c-0.245-0.128-0.515-0.192-0.81-0.192c-0.301,0-0.572,0.064-0.818,0.192s-0.456,0.308-0.633,0.539
			c-0.176,0.231-0.313,0.508-0.412,0.831c-0.1,0.323-0.148,0.682-0.148,1.078s0.051,0.755,0.148,1.078s0.236,0.6,0.412,0.831
			c0.177,0.231,0.387,0.409,0.633,0.534s0.519,0.188,0.818,0.188c0.295,0,0.563-0.062,0.81-0.188s0.457-0.303,0.633-0.534
			s0.313-0.508,0.412-0.831S161.52,79.673,161.52,79.277z"/>
	</g>
	<g display="inline">
		<path fill="#FFFFFF" d="M196.284,127.404c0.483,0.081,0.87,0.301,1.159,0.66c0.291,0.359,0.436,0.803,0.436,1.331
			c0,0.33-0.061,0.632-0.182,0.908c-0.121,0.275-0.293,0.509-0.518,0.704c-0.224,0.195-0.49,0.345-0.803,0.451
			s-0.659,0.16-1.04,0.16c-0.558,0-1.045-0.112-1.463-0.335c-0.418-0.224-0.733-0.534-0.946-0.93l0.518-0.473
			c0.154,0.323,0.39,0.579,0.705,0.77c0.313,0.191,0.711,0.286,1.188,0.286c0.551,0,0.982-0.134,1.299-0.401
			c0.314-0.268,0.473-0.651,0.473-1.15c0-0.506-0.164-0.905-0.494-1.199s-0.807-0.44-1.432-0.44h-0.273v-0.638h0.297
			c0.564,0,0.997-0.132,1.298-0.396c0.302-0.264,0.451-0.605,0.451-1.023c0-0.22-0.04-0.413-0.121-0.578s-0.192-0.304-0.336-0.418
			c-0.144-0.113-0.312-0.2-0.506-0.258s-0.405-0.088-0.632-0.088c-0.418,0-0.787,0.093-1.105,0.28s-0.56,0.445-0.721,0.775
			l-0.484-0.462c0.088-0.19,0.213-0.365,0.374-0.522s0.345-0.292,0.55-0.401c0.207-0.11,0.434-0.196,0.684-0.259
			c0.249-0.062,0.506-0.093,0.77-0.093c0.338,0,0.647,0.048,0.93,0.143c0.283,0.095,0.526,0.229,0.731,0.401
			s0.365,0.379,0.479,0.622c0.113,0.242,0.171,0.51,0.171,0.803c0,0.22-0.033,0.431-0.101,0.633
			c-0.064,0.202-0.16,0.381-0.285,0.539c-0.125,0.158-0.276,0.29-0.457,0.396C196.717,127.308,196.511,127.375,196.284,127.404z"/>
		<path fill="#FFFFFF" d="M204.545,126.777c0,0.484-0.07,0.93-0.209,1.336c-0.141,0.407-0.332,0.759-0.578,1.056
			c-0.244,0.297-0.537,0.528-0.874,0.693c-0.338,0.165-0.704,0.248-1.101,0.248s-0.764-0.083-1.1-0.248
			c-0.338-0.165-0.629-0.396-0.875-0.693s-0.438-0.649-0.578-1.056c-0.14-0.407-0.209-0.853-0.209-1.336s0.069-0.929,0.209-1.336
			c0.141-0.407,0.332-0.759,0.578-1.056c0.246-0.297,0.537-0.529,0.875-0.698c0.336-0.168,0.703-0.253,1.1-0.253
			s0.763,0.084,1.101,0.253c0.337,0.169,0.63,0.401,0.874,0.698c0.246,0.297,0.438,0.649,0.578,1.056
			C204.475,125.848,204.545,126.293,204.545,126.777z M203.785,126.777c0-0.396-0.049-0.755-0.148-1.078
			c-0.099-0.323-0.236-0.6-0.412-0.831c-0.176-0.231-0.387-0.411-0.633-0.539c-0.244-0.128-0.515-0.192-0.809-0.192
			c-0.301,0-0.573,0.064-0.819,0.192s-0.456,0.308-0.633,0.539c-0.176,0.231-0.313,0.508-0.412,0.831
			c-0.099,0.323-0.147,0.682-0.147,1.078s0.049,0.755,0.147,1.078s0.235,0.6,0.412,0.831s0.387,0.409,0.633,0.534
			s0.519,0.188,0.819,0.188c0.294,0,0.562-0.062,0.809-0.188s0.457-0.303,0.633-0.534s0.313-0.508,0.412-0.831
			C203.736,127.532,203.785,127.173,203.785,126.777z"/>
		<path fill="#FFFFFF" d="M211.311,126.777c0,0.484-0.069,0.93-0.209,1.336c-0.14,0.407-0.332,0.759-0.578,1.056
			c-0.244,0.297-0.537,0.528-0.873,0.693c-0.338,0.165-0.705,0.248-1.102,0.248s-0.763-0.083-1.1-0.248
			c-0.338-0.165-0.629-0.396-0.875-0.693c-0.245-0.297-0.438-0.649-0.577-1.056c-0.14-0.407-0.209-0.853-0.209-1.336
			s0.069-0.929,0.209-1.336c0.14-0.407,0.332-0.759,0.577-1.056c0.246-0.297,0.537-0.529,0.875-0.698
			c0.337-0.168,0.703-0.253,1.1-0.253s0.764,0.084,1.102,0.253c0.336,0.169,0.629,0.401,0.873,0.698
			c0.246,0.297,0.438,0.649,0.578,1.056C211.24,125.848,211.311,126.293,211.311,126.777z M210.551,126.777
			c0-0.396-0.049-0.755-0.148-1.078c-0.098-0.323-0.235-0.6-0.411-0.831c-0.177-0.231-0.388-0.411-0.634-0.539
			c-0.244-0.128-0.515-0.192-0.809-0.192c-0.301,0-0.572,0.064-0.818,0.192s-0.457,0.308-0.633,0.539
			c-0.177,0.231-0.313,0.508-0.412,0.831c-0.1,0.323-0.148,0.682-0.148,1.078s0.05,0.755,0.148,1.078
			c0.098,0.323,0.235,0.6,0.412,0.831c0.176,0.231,0.387,0.409,0.633,0.534s0.519,0.188,0.818,0.188
			c0.294,0,0.562-0.062,0.809-0.188s0.457-0.303,0.634-0.534c0.176-0.231,0.313-0.508,0.411-0.831
			C210.502,127.532,210.551,127.173,210.551,126.777z"/>
		<path fill="#FFFFFF" d="M212.872,124.269l1.716,2.244l0.088,0.165l0.1-0.165l1.705-2.244h0.804l-2.188,2.882l2.188,2.849h-0.804
			l-1.705-2.233l-0.1-0.154l-0.088,0.154L212.883,130h-0.814l2.189-2.849l-2.189-2.882H212.872z"/>
		<path fill="#FFFFFF" d="M217.986,130c0-0.271,0.023-0.537,0.072-0.797c0.047-0.26,0.139-0.512,0.273-0.753
			c0.136-0.242,0.322-0.475,0.562-0.699c0.238-0.224,0.543-0.435,0.918-0.632c0.197-0.103,0.412-0.207,0.644-0.313
			s0.444-0.226,0.644-0.358c0.198-0.132,0.361-0.278,0.489-0.44c0.129-0.161,0.193-0.352,0.193-0.572
			c0-0.139-0.031-0.279-0.095-0.418c-0.062-0.139-0.153-0.264-0.274-0.374s-0.271-0.198-0.451-0.264
			c-0.18-0.066-0.387-0.099-0.621-0.099c-0.241,0-0.46,0.035-0.653,0.104c-0.194,0.07-0.365,0.152-0.513,0.248
			c-0.146,0.096-0.271,0.196-0.368,0.303c-0.1,0.106-0.175,0.192-0.226,0.258l-0.495-0.539c0.044-0.044,0.128-0.125,0.253-0.242
			c0.125-0.117,0.288-0.235,0.489-0.352c0.201-0.117,0.439-0.222,0.715-0.313c0.275-0.092,0.585-0.138,0.93-0.138
			c0.33,0,0.625,0.046,0.887,0.138c0.26,0.092,0.481,0.218,0.664,0.379c0.185,0.162,0.324,0.347,0.418,0.556
			c0.097,0.209,0.145,0.431,0.145,0.666c0,0.308-0.07,0.574-0.215,0.797c-0.143,0.224-0.316,0.416-0.521,0.578
			c-0.205,0.161-0.416,0.293-0.634,0.396c-0.216,0.103-0.394,0.187-0.532,0.253c-0.33,0.146-0.604,0.29-0.826,0.429
			c-0.219,0.14-0.398,0.283-0.539,0.429c-0.139,0.147-0.242,0.308-0.312,0.484c-0.068,0.176-0.119,0.378-0.148,0.605h3.852V130
			H217.986z"/>
		<path fill="#FFFFFF" d="M226.369,126.568c0.359,0,0.693,0.061,1.001,0.182s0.577,0.292,0.81,0.512
			c0.229,0.22,0.411,0.482,0.543,0.786c0.133,0.305,0.198,0.64,0.198,1.007c0,0.389-0.071,0.742-0.214,1.062
			c-0.145,0.319-0.338,0.59-0.583,0.814c-0.246,0.224-0.534,0.397-0.864,0.522s-0.682,0.187-1.056,0.187
			c-0.279,0-0.545-0.035-0.798-0.104c-0.254-0.07-0.485-0.171-0.698-0.303c-0.213-0.132-0.405-0.29-0.577-0.473
			c-0.173-0.183-0.312-0.389-0.424-0.616l0.495-0.374c0.205,0.359,0.485,0.649,0.842,0.869c0.354,0.22,0.746,0.33,1.171,0.33
			c0.271,0,0.524-0.046,0.76-0.137c0.234-0.092,0.439-0.222,0.615-0.391s0.312-0.37,0.413-0.605c0.099-0.234,0.147-0.491,0.147-0.77
			c0-0.271-0.047-0.519-0.144-0.743c-0.095-0.223-0.228-0.416-0.396-0.577c-0.17-0.161-0.365-0.286-0.59-0.374
			c-0.224-0.088-0.467-0.132-0.73-0.132c-0.352,0-0.682,0.076-0.984,0.226c-0.305,0.15-0.552,0.369-0.742,0.655h-0.692
			c0.007-0.044,0.024-0.143,0.055-0.297c0.029-0.154,0.066-0.337,0.11-0.55c0.044-0.212,0.092-0.449,0.143-0.709
			c0.053-0.26,0.104-0.522,0.154-0.787c0.125-0.616,0.262-1.301,0.407-2.057h3.772v0.693h-3.213l-0.539,2.805
			c0.191-0.205,0.424-0.365,0.699-0.479C225.736,126.625,226.039,126.568,226.369,126.568z"/>
		<path fill="#FFFFFF" d="M235.499,126.777c0,0.484-0.069,0.93-0.209,1.336c-0.14,0.407-0.332,0.759-0.578,1.056
			c-0.245,0.297-0.537,0.528-0.874,0.693c-0.338,0.165-0.704,0.248-1.102,0.248c-0.396,0-0.762-0.083-1.1-0.248
			c-0.338-0.165-0.629-0.396-0.875-0.693c-0.244-0.297-0.438-0.649-0.576-1.056c-0.141-0.407-0.209-0.853-0.209-1.336
			s0.068-0.929,0.209-1.336c0.14-0.407,0.332-0.759,0.576-1.056c0.246-0.297,0.537-0.529,0.875-0.698
			c0.338-0.168,0.704-0.253,1.1-0.253c0.396,0,0.764,0.084,1.102,0.253c0.337,0.169,0.629,0.401,0.874,0.698
			c0.246,0.297,0.438,0.649,0.578,1.056C235.43,125.848,235.499,126.293,235.499,126.777z M234.739,126.777
			c0-0.396-0.05-0.755-0.148-1.078c-0.099-0.323-0.235-0.6-0.411-0.831c-0.177-0.231-0.388-0.411-0.634-0.539
			c-0.245-0.128-0.515-0.192-0.81-0.192c-0.301,0-0.572,0.064-0.818,0.192s-0.456,0.308-0.633,0.539
			c-0.176,0.231-0.312,0.508-0.412,0.831c-0.1,0.323-0.148,0.682-0.148,1.078s0.051,0.755,0.148,1.078s0.236,0.6,0.412,0.831
			c0.177,0.231,0.387,0.409,0.633,0.534s0.52,0.188,0.818,0.188c0.295,0,0.563-0.062,0.81-0.188s0.457-0.303,0.634-0.534
			c0.176-0.231,0.312-0.508,0.411-0.831S234.739,127.173,234.739,126.777z"/>
	</g>
	<g display="inline">
		<path fill="#FFFFFF" d="M97.219,257.279h-4.213v-0.692h5.401l-3.949,7.81H93.6L97.219,257.279z"/>
		<path fill="#FFFFFF" d="M99.11,263c0-0.271,0.024-0.537,0.072-0.797c0.047-0.262,0.139-0.512,0.274-0.754
			c0.135-0.242,0.323-0.475,0.562-0.699c0.238-0.223,0.544-0.434,0.918-0.632c0.198-0.103,0.413-0.207,0.644-0.313
			c0.231-0.105,0.445-0.226,0.644-0.356c0.198-0.134,0.361-0.279,0.489-0.44c0.129-0.16,0.193-0.353,0.193-0.57
			c0-0.141-0.031-0.279-0.094-0.418c-0.062-0.141-0.154-0.266-0.275-0.375s-0.271-0.197-0.451-0.265
			c-0.18-0.067-0.387-0.101-0.621-0.101c-0.242,0-0.46,0.035-0.654,0.105c-0.194,0.069-0.365,0.152-0.512,0.247
			c-0.146,0.097-0.27,0.196-0.368,0.304c-0.1,0.105-0.175,0.191-0.226,0.258l-0.495-0.538c0.044-0.046,0.128-0.125,0.253-0.242
			s0.288-0.233,0.489-0.353c0.202-0.117,0.44-0.223,0.715-0.313c0.275-0.092,0.585-0.138,0.93-0.138c0.33,0,0.625,0.046,0.886,0.138
			c0.26,0.092,0.482,0.219,0.665,0.38c0.184,0.161,0.323,0.348,0.418,0.557c0.096,0.209,0.144,0.431,0.144,0.666
			c0,0.307-0.071,0.572-0.215,0.797c-0.143,0.224-0.317,0.416-0.522,0.578c-0.205,0.159-0.416,0.293-0.633,0.396
			c-0.216,0.103-0.394,0.187-0.533,0.253c-0.33,0.146-0.604,0.289-0.825,0.429c-0.22,0.14-0.399,0.282-0.539,0.429
			c-0.139,0.147-0.243,0.31-0.313,0.484c-0.069,0.176-0.119,0.378-0.148,0.605h3.851V263H99.11z"/>
		<path fill="#FFFFFF" d="M110.397,260.833c0,0.345-0.074,0.653-0.221,0.931c-0.146,0.273-0.345,0.51-0.594,0.709
			c-0.249,0.197-0.541,0.351-0.874,0.457c-0.334,0.105-0.685,0.158-1.051,0.158c-0.389,0-0.748-0.061-1.078-0.182
			s-0.614-0.285-0.853-0.494c-0.239-0.209-0.424-0.453-0.556-0.732c-0.132-0.277-0.198-0.574-0.198-0.891
			c0-0.25,0.046-0.48,0.138-0.693c0.092-0.213,0.211-0.4,0.357-0.566c0.146-0.164,0.313-0.307,0.501-0.428
			c0.187-0.121,0.376-0.215,0.566-0.281c-0.176-0.073-0.341-0.163-0.495-0.27c-0.154-0.105-0.29-0.229-0.407-0.369
			c-0.117-0.139-0.211-0.293-0.28-0.461c-0.069-0.17-0.104-0.35-0.104-0.539c0-0.322,0.073-0.606,0.22-0.854
			c0.146-0.245,0.336-0.452,0.566-0.621c0.231-0.168,0.491-0.297,0.781-0.385s0.581-0.133,0.875-0.133
			c0.293,0,0.584,0.045,0.874,0.133s0.55,0.215,0.781,0.379c0.23,0.166,0.42,0.373,0.566,0.622s0.22,0.532,0.22,0.847
			c0,0.191-0.034,0.371-0.104,0.539c-0.069,0.169-0.165,0.324-0.286,0.467c-0.12,0.145-0.26,0.27-0.418,0.375
			c-0.157,0.105-0.324,0.195-0.5,0.27c0.213,0.074,0.414,0.175,0.604,0.304c0.191,0.128,0.357,0.276,0.501,0.444
			c0.143,0.168,0.257,0.359,0.341,0.572C110.354,260.354,110.397,260.584,110.397,260.833z M109.638,260.777
			c0-0.264-0.059-0.496-0.176-0.697c-0.117-0.202-0.27-0.373-0.456-0.512c-0.188-0.141-0.398-0.246-0.633-0.319
			s-0.466-0.11-0.693-0.11c-0.241,0-0.479,0.039-0.709,0.115c-0.231,0.078-0.438,0.188-0.622,0.33
			c-0.183,0.145-0.329,0.318-0.439,0.523c-0.11,0.205-0.165,0.432-0.165,0.682c0,0.257,0.059,0.486,0.176,0.688
			c0.117,0.203,0.27,0.373,0.457,0.513c0.187,0.139,0.396,0.245,0.627,0.317c0.23,0.074,0.464,0.11,0.698,0.11
			c0.234,0,0.468-0.038,0.698-0.116c0.231-0.076,0.438-0.188,0.622-0.328c0.183-0.145,0.331-0.315,0.445-0.518
			C109.581,261.253,109.638,261.027,109.638,260.777z M106.008,257.214c0,0.213,0.052,0.401,0.154,0.565
			c0.102,0.166,0.234,0.306,0.396,0.42c0.162,0.113,0.342,0.199,0.539,0.258c0.198,0.059,0.396,0.088,0.595,0.088
			c0.19,0,0.387-0.029,0.588-0.088c0.202-0.059,0.384-0.146,0.545-0.264c0.161-0.118,0.293-0.262,0.396-0.43
			s0.154-0.359,0.154-0.572c0-0.205-0.048-0.392-0.143-0.555c-0.096-0.166-0.223-0.306-0.38-0.419
			c-0.158-0.112-0.337-0.2-0.539-0.259s-0.412-0.088-0.633-0.088c-0.22,0-0.431,0.031-0.632,0.093
			c-0.202,0.062-0.38,0.15-0.534,0.265c-0.153,0.115-0.276,0.256-0.368,0.424C106.054,256.822,106.008,257.009,106.008,257.214z"/>
		<path fill="#FFFFFF" d="M111.915,257.27l1.716,2.244l0.088,0.164l0.099-0.164l1.705-2.244h0.804l-2.189,2.881l2.189,2.851h-0.804
			l-1.705-2.231l-0.099-0.154l-0.088,0.154l-1.705,2.23h-0.814l2.189-2.85l-2.189-2.881H111.915L111.915,257.27z"/>
		<path fill="#FFFFFF" d="M116.887,259.402c0-0.373,0.071-0.725,0.215-1.051c0.143-0.326,0.337-0.609,0.583-0.853
			c0.245-0.242,0.537-0.433,0.874-0.571c0.337-0.14,0.7-0.21,1.089-0.21c0.411,0,0.788,0.076,1.133,0.226
			c0.345,0.15,0.641,0.365,0.886,0.645c0.246,0.279,0.438,0.621,0.578,1.029c0.139,0.406,0.209,0.863,0.209,1.369
			c0,0.791-0.07,1.481-0.209,2.072c-0.14,0.592-0.336,1.082-0.589,1.475c-0.253,0.393-0.556,0.684-0.907,0.875
			c-0.353,0.189-0.745,0.285-1.178,0.285c-0.513,0-0.975-0.129-1.386-0.385c-0.41-0.257-0.723-0.611-0.935-1.066l0.483-0.44
			c0.146,0.374,0.389,0.673,0.727,0.897c0.337,0.223,0.711,0.335,1.122,0.335c0.322,0,0.615-0.077,0.88-0.231
			c0.264-0.154,0.489-0.375,0.677-0.664c0.187-0.291,0.333-0.646,0.439-1.068c0.106-0.42,0.159-0.902,0.159-1.445
			c-0.161,0.434-0.438,0.777-0.83,1.034c-0.393,0.256-0.838,0.385-1.337,0.385c-0.374,0-0.724-0.067-1.05-0.203
			s-0.61-0.321-0.853-0.562c-0.242-0.238-0.433-0.52-0.572-0.842C116.956,260.114,116.887,259.77,116.887,259.402z M119.637,257.379
			c-0.278,0-0.541,0.053-0.786,0.16c-0.246,0.105-0.462,0.25-0.649,0.434c-0.187,0.185-0.334,0.398-0.439,0.646
			c-0.106,0.245-0.16,0.508-0.16,0.784c0,0.279,0.056,0.541,0.165,0.787c0.11,0.246,0.257,0.461,0.44,0.645s0.397,0.328,0.644,0.436
			c0.245,0.105,0.508,0.158,0.786,0.158c0.278,0,0.543-0.053,0.792-0.158c0.249-0.106,0.468-0.252,0.654-0.436
			c0.188-0.184,0.334-0.396,0.44-0.645c0.106-0.246,0.159-0.508,0.159-0.787c0-0.271-0.055-0.528-0.165-0.774
			c-0.109-0.245-0.259-0.461-0.445-0.647c-0.188-0.188-0.403-0.334-0.649-0.439C120.178,257.432,119.915,257.379,119.637,257.379z"
			/>
		<path fill="#FFFFFF" d="M129.097,259.777c0,0.484-0.07,0.93-0.209,1.336c-0.14,0.406-0.332,0.76-0.578,1.057
			c-0.245,0.297-0.537,0.527-0.874,0.691c-0.338,0.166-0.704,0.248-1.101,0.248c-0.396,0-0.763-0.082-1.1-0.248
			c-0.338-0.164-0.629-0.396-0.875-0.691c-0.245-0.297-0.438-0.648-0.577-1.057c-0.14-0.406-0.209-0.852-0.209-1.336
			s0.069-0.93,0.209-1.338c0.14-0.406,0.332-0.758,0.577-1.056c0.246-0.297,0.537-0.528,0.875-0.698
			c0.337-0.168,0.704-0.252,1.1-0.252s0.763,0.084,1.101,0.252c0.337,0.17,0.629,0.401,0.874,0.698
			c0.246,0.298,0.438,0.648,0.578,1.056C129.026,258.848,129.097,259.293,129.097,259.777z M128.337,259.777
			c0-0.396-0.049-0.756-0.148-1.078s-0.236-0.6-0.412-0.83c-0.176-0.23-0.387-0.411-0.633-0.539
			c-0.245-0.129-0.515-0.193-0.809-0.193c-0.301,0-0.573,0.064-0.819,0.193c-0.246,0.128-0.456,0.309-0.633,0.539
			c-0.176,0.23-0.313,0.508-0.412,0.83c-0.099,0.322-0.148,0.682-0.148,1.078c0,0.396,0.05,0.755,0.148,1.078
			c0.099,0.321,0.236,0.6,0.412,0.83c0.177,0.229,0.387,0.407,0.633,0.532s0.519,0.188,0.819,0.188c0.294,0,0.563-0.062,0.809-0.188
			c0.246-0.125,0.457-0.303,0.633-0.532c0.176-0.23,0.313-0.509,0.412-0.83C128.288,260.532,128.337,260.173,128.337,259.777z"/>
	</g>
	<g display="inline">
		<path fill="#FFFFFF" d="M14.298,38.723v0.682h-3.729v-0.682h1.562v-4.708c-0.065,0.088-0.169,0.184-0.308,0.286
			c-0.14,0.103-0.296,0.198-0.468,0.286s-0.351,0.161-0.533,0.22c-0.184,0.059-0.345,0.088-0.484,0.088v-0.726
			c0.169,0,0.354-0.048,0.556-0.143c0.201-0.095,0.393-0.205,0.572-0.33c0.18-0.125,0.331-0.242,0.456-0.352
			c0.125-0.11,0.194-0.183,0.209-0.22h0.771v5.599H14.298z"/>
		<path fill="#FFFFFF" d="M15.101,39.405c0-0.271,0.024-0.537,0.072-0.797c0.047-0.26,0.139-0.512,0.274-0.753
			c0.136-0.242,0.323-0.475,0.562-0.699c0.239-0.224,0.544-0.435,0.918-0.632c0.198-0.103,0.413-0.207,0.644-0.313
			s0.445-0.226,0.644-0.358c0.198-0.132,0.361-0.278,0.489-0.44c0.129-0.161,0.193-0.352,0.193-0.572
			c0-0.139-0.031-0.279-0.094-0.418c-0.063-0.139-0.154-0.264-0.275-0.374c-0.121-0.11-0.271-0.198-0.451-0.264
			c-0.18-0.066-0.387-0.099-0.621-0.099c-0.242,0-0.46,0.035-0.654,0.104c-0.194,0.07-0.365,0.152-0.512,0.248
			c-0.146,0.096-0.27,0.196-0.368,0.303c-0.1,0.106-0.175,0.192-0.226,0.258l-0.496-0.54c0.044-0.044,0.128-0.125,0.253-0.242
			c0.125-0.117,0.288-0.235,0.489-0.352c0.202-0.117,0.44-0.222,0.715-0.313c0.275-0.092,0.585-0.138,0.93-0.138
			c0.33,0,0.625,0.046,0.886,0.138c0.26,0.092,0.482,0.218,0.665,0.379c0.184,0.162,0.323,0.347,0.418,0.556
			c0.096,0.209,0.144,0.431,0.144,0.666c0,0.308-0.071,0.574-0.215,0.797c-0.143,0.224-0.317,0.416-0.522,0.578
			c-0.205,0.161-0.416,0.293-0.633,0.396c-0.216,0.103-0.394,0.187-0.533,0.253c-0.33,0.146-0.604,0.29-0.825,0.429
			c-0.22,0.14-0.399,0.283-0.539,0.429c-0.139,0.147-0.243,0.308-0.313,0.484c-0.069,0.176-0.119,0.378-0.148,0.605h3.851v0.682
			L15.101,39.405L15.101,39.405z"/>
		<path fill="#FFFFFF" d="M26.553,36.182c0,0.484-0.07,0.93-0.209,1.336c-0.14,0.407-0.332,0.759-0.578,1.056
			c-0.245,0.297-0.537,0.528-0.874,0.693c-0.338,0.165-0.704,0.248-1.101,0.248c-0.396,0-0.763-0.083-1.1-0.248
			c-0.338-0.165-0.629-0.396-0.875-0.693c-0.245-0.297-0.438-0.649-0.577-1.056c-0.14-0.407-0.209-0.852-0.209-1.336
			s0.069-0.929,0.209-1.336c0.14-0.407,0.332-0.759,0.577-1.056c0.246-0.297,0.537-0.529,0.875-0.698
			c0.337-0.168,0.704-0.253,1.1-0.253s0.763,0.084,1.101,0.253c0.337,0.169,0.629,0.401,0.874,0.698
			c0.246,0.297,0.438,0.649,0.578,1.056C26.482,35.252,26.553,35.698,26.553,36.182z M25.793,36.182
			c0-0.396-0.049-0.755-0.148-1.078s-0.236-0.6-0.412-0.831c-0.176-0.231-0.387-0.411-0.633-0.539
			c-0.245-0.128-0.515-0.192-0.809-0.192c-0.301,0-0.573,0.064-0.819,0.192c-0.246,0.128-0.456,0.308-0.633,0.539
			c-0.176,0.231-0.313,0.508-0.412,0.831c-0.099,0.323-0.148,0.682-0.148,1.078s0.05,0.755,0.148,1.078
			c0.098,0.323,0.236,0.6,0.412,0.831c0.177,0.231,0.387,0.409,0.633,0.534c0.246,0.125,0.519,0.187,0.819,0.187
			c0.294,0,0.563-0.062,0.809-0.187s0.457-0.303,0.633-0.534c0.176-0.231,0.313-0.508,0.412-0.831
			C25.744,36.937,25.793,36.578,25.793,36.182z"/>
		<path fill="#FFFFFF" d="M16.696,46.874l1.716,2.244l0.088,0.165l0.099-0.165l1.705-2.244h0.804l-2.189,2.883l2.189,2.849h-0.804
			l-1.705-2.233L18.5,50.218l-0.088,0.153l-1.705,2.233h-0.814l2.189-2.849l-2.189-2.883h0.803V46.874z"/>
		<path fill="#FFFFFF" d="M14.573,63.231c0,0.374-0.071,0.725-0.215,1.051c-0.143,0.326-0.337,0.61-0.583,0.853
			c-0.245,0.242-0.537,0.433-0.874,0.572c-0.338,0.139-0.7,0.209-1.089,0.209c-0.411,0-0.788-0.075-1.133-0.226
			c-0.345-0.151-0.643-0.365-0.892-0.644c-0.249-0.279-0.441-0.622-0.577-1.028c-0.136-0.407-0.203-0.864-0.203-1.37
			c0-0.792,0.069-1.482,0.209-2.073c0.139-0.59,0.335-1.082,0.588-1.474c0.253-0.393,0.556-0.685,0.907-0.875
			c0.353-0.19,0.745-0.286,1.178-0.286c0.513,0,0.975,0.129,1.386,0.385c0.41,0.257,0.723,0.613,0.935,1.067l-0.483,0.44
			c-0.147-0.374-0.389-0.673-0.727-0.896c-0.337-0.224-0.711-0.336-1.122-0.336c-0.322,0-0.615,0.077-0.88,0.231
			c-0.264,0.153-0.489,0.376-0.676,0.665c-0.188,0.29-0.334,0.647-0.44,1.072c-0.106,0.426-0.159,0.906-0.159,1.441
			c0.161-0.433,0.438-0.777,0.83-1.034c0.392-0.257,0.838-0.385,1.337-0.385c0.374,0,0.724,0.067,1.05,0.203
			c0.326,0.136,0.611,0.323,0.853,0.562c0.242,0.238,0.433,0.519,0.572,0.841C14.504,62.52,14.573,62.865,14.573,63.231z
			 M11.823,65.255c0.278,0,0.541-0.054,0.786-0.16c0.246-0.104,0.463-0.251,0.649-0.434c0.188-0.184,0.334-0.398,0.44-0.644
			c0.105-0.246,0.159-0.508,0.159-0.787c0-0.278-0.055-0.54-0.165-0.786c-0.11-0.246-0.257-0.46-0.44-0.644
			c-0.183-0.184-0.399-0.328-0.648-0.435c-0.25-0.106-0.51-0.159-0.781-0.159c-0.278,0-0.543,0.053-0.792,0.159
			c-0.249,0.106-0.468,0.251-0.654,0.435c-0.188,0.184-0.334,0.397-0.44,0.644c-0.106,0.247-0.159,0.508-0.159,0.786
			c0,0.279,0.055,0.539,0.165,0.781c0.11,0.242,0.259,0.456,0.445,0.645c0.188,0.187,0.403,0.334,0.649,0.438
			C11.282,65.202,11.545,65.255,11.823,65.255z"/>
		<path fill="#FFFFFF" d="M21.218,62.583c0,0.483-0.07,0.929-0.209,1.336c-0.14,0.407-0.332,0.759-0.578,1.057
			c-0.245,0.297-0.537,0.527-0.874,0.692c-0.338,0.165-0.704,0.248-1.101,0.248c-0.396,0-0.763-0.083-1.1-0.248
			c-0.338-0.165-0.629-0.396-0.875-0.692c-0.245-0.298-0.438-0.649-0.577-1.057c-0.139-0.408-0.209-0.853-0.209-1.336
			c0-0.484,0.069-0.93,0.209-1.337c0.14-0.407,0.332-0.759,0.577-1.056c0.246-0.297,0.537-0.53,0.875-0.699
			c0.337-0.168,0.704-0.253,1.1-0.253s0.763,0.085,1.101,0.253c0.337,0.169,0.629,0.402,0.874,0.699
			c0.246,0.297,0.438,0.648,0.578,1.056C21.147,61.653,21.218,62.098,21.218,62.583z M20.458,62.583
			c0-0.396-0.049-0.756-0.148-1.078c-0.099-0.323-0.236-0.6-0.412-0.831c-0.176-0.23-0.387-0.41-0.633-0.539
			c-0.245-0.128-0.515-0.192-0.809-0.192c-0.301,0-0.573,0.064-0.819,0.192c-0.246,0.129-0.456,0.309-0.633,0.539
			c-0.176,0.231-0.313,0.508-0.412,0.831c-0.099,0.322-0.148,0.682-0.148,1.078s0.05,0.755,0.148,1.078
			c0.099,0.322,0.236,0.599,0.412,0.83c0.177,0.23,0.387,0.409,0.633,0.533c0.246,0.125,0.519,0.188,0.819,0.188
			c0.294,0,0.563-0.062,0.809-0.188c0.246-0.124,0.457-0.303,0.633-0.533c0.176-0.231,0.313-0.508,0.412-0.83
			C20.409,63.337,20.458,62.978,20.458,62.583z"/>
		<path fill="#FFFFFF" d="M27.982,62.583c0,0.483-0.07,0.929-0.209,1.336c-0.14,0.407-0.332,0.759-0.578,1.057
			c-0.245,0.297-0.537,0.527-0.874,0.692c-0.338,0.165-0.704,0.248-1.101,0.248c-0.396,0-0.763-0.083-1.1-0.248
			c-0.338-0.165-0.629-0.396-0.875-0.692c-0.245-0.298-0.438-0.649-0.577-1.057s-0.209-0.853-0.209-1.336
			c0-0.484,0.069-0.93,0.209-1.337c0.14-0.407,0.332-0.759,0.577-1.056c0.246-0.297,0.537-0.53,0.875-0.699
			c0.337-0.168,0.704-0.253,1.1-0.253s0.763,0.085,1.101,0.253c0.337,0.169,0.629,0.402,0.874,0.699
			c0.246,0.297,0.438,0.648,0.578,1.056C27.912,61.653,27.982,62.098,27.982,62.583z M27.223,62.583
			c0-0.396-0.049-0.756-0.148-1.078c-0.099-0.323-0.236-0.6-0.412-0.831c-0.176-0.23-0.387-0.41-0.633-0.539
			c-0.245-0.128-0.515-0.192-0.809-0.192c-0.301,0-0.573,0.064-0.819,0.192c-0.246,0.129-0.456,0.309-0.633,0.539
			c-0.176,0.231-0.313,0.508-0.412,0.831c-0.099,0.322-0.148,0.682-0.148,1.078s0.05,0.755,0.148,1.078
			c0.099,0.322,0.236,0.599,0.412,0.83c0.177,0.23,0.387,0.409,0.633,0.533c0.246,0.125,0.519,0.188,0.819,0.188
			c0.294,0,0.563-0.062,0.809-0.188c0.246-0.124,0.457-0.303,0.633-0.533c0.176-0.231,0.313-0.508,0.412-0.83
			C27.174,63.337,27.223,62.978,27.223,62.583z"/>
	</g>
	<g display="inline">
		<path fill="#FFFFFF" d="M263.298,38.723v0.682h-3.729v-0.682h1.562v-4.708c-0.064,0.088-0.169,0.184-0.308,0.286
			c-0.14,0.103-0.296,0.198-0.468,0.286s-0.352,0.161-0.533,0.22c-0.184,0.059-0.346,0.088-0.484,0.088v-0.726
			c0.169,0,0.354-0.048,0.557-0.143c0.201-0.095,0.393-0.205,0.571-0.33c0.181-0.125,0.331-0.242,0.456-0.352
			c0.125-0.11,0.194-0.183,0.209-0.22h0.771v5.599H263.298z"/>
		<path fill="#FFFFFF" d="M264.102,39.405c0-0.271,0.023-0.537,0.071-0.797c0.048-0.26,0.14-0.512,0.274-0.753
			c0.136-0.242,0.322-0.475,0.562-0.699c0.239-0.224,0.544-0.435,0.918-0.632c0.198-0.103,0.413-0.207,0.644-0.313
			c0.231-0.106,0.445-0.226,0.645-0.358c0.198-0.132,0.361-0.278,0.489-0.44c0.129-0.161,0.192-0.352,0.192-0.572
			c0-0.139-0.03-0.279-0.094-0.418c-0.062-0.139-0.154-0.264-0.275-0.374c-0.12-0.11-0.271-0.198-0.45-0.264
			c-0.181-0.066-0.388-0.099-0.621-0.099c-0.242,0-0.46,0.035-0.653,0.104c-0.195,0.07-0.365,0.152-0.513,0.248
			c-0.146,0.096-0.271,0.196-0.368,0.303c-0.1,0.106-0.175,0.192-0.226,0.258l-0.495-0.539c0.044-0.044,0.128-0.125,0.253-0.242
			c0.125-0.117,0.288-0.235,0.489-0.352c0.201-0.117,0.439-0.222,0.715-0.313c0.275-0.092,0.585-0.138,0.93-0.138
			c0.33,0,0.625,0.046,0.887,0.138c0.26,0.092,0.481,0.218,0.664,0.379c0.185,0.162,0.323,0.347,0.418,0.556
			c0.096,0.209,0.145,0.431,0.145,0.666c0,0.308-0.071,0.574-0.215,0.797c-0.143,0.224-0.317,0.416-0.522,0.578
			c-0.204,0.161-0.416,0.293-0.633,0.396c-0.216,0.103-0.394,0.187-0.533,0.253c-0.329,0.146-0.604,0.29-0.825,0.429
			c-0.22,0.14-0.398,0.283-0.539,0.429c-0.139,0.147-0.242,0.308-0.312,0.484c-0.068,0.176-0.119,0.378-0.148,0.605h3.852v0.682
			h-4.723V39.405z"/>
		<path fill="#FFFFFF" d="M275.553,36.182c0,0.484-0.07,0.93-0.209,1.336c-0.14,0.407-0.332,0.759-0.578,1.056
			c-0.244,0.297-0.537,0.528-0.873,0.693c-0.338,0.165-0.705,0.248-1.102,0.248s-0.764-0.083-1.1-0.248
			c-0.338-0.165-0.629-0.396-0.875-0.693c-0.246-0.297-0.438-0.649-0.578-1.056c-0.139-0.407-0.209-0.852-0.209-1.336
			s0.07-0.929,0.209-1.336c0.141-0.407,0.332-0.759,0.578-1.056s0.537-0.529,0.875-0.698c0.336-0.168,0.703-0.253,1.1-0.253
			s0.764,0.084,1.102,0.253c0.336,0.169,0.629,0.401,0.873,0.698c0.246,0.297,0.438,0.649,0.578,1.056
			C275.482,35.252,275.553,35.698,275.553,36.182z M274.793,36.182c0-0.396-0.049-0.755-0.148-1.078
			c-0.099-0.323-0.235-0.6-0.412-0.831c-0.176-0.231-0.387-0.411-0.633-0.539c-0.244-0.128-0.515-0.192-0.809-0.192
			c-0.301,0-0.573,0.064-0.818,0.192c-0.246,0.128-0.457,0.308-0.634,0.539c-0.176,0.231-0.313,0.508-0.411,0.831
			c-0.1,0.323-0.148,0.682-0.148,1.078s0.05,0.755,0.148,1.078c0.098,0.323,0.235,0.6,0.411,0.831
			c0.177,0.231,0.388,0.409,0.634,0.534c0.245,0.125,0.519,0.187,0.818,0.187c0.294,0,0.562-0.062,0.809-0.187
			s0.457-0.303,0.633-0.534c0.177-0.231,0.313-0.508,0.412-0.831C274.744,36.937,274.793,36.578,274.793,36.182z"/>
		<path fill="#FFFFFF" d="M265.695,46.874l1.717,2.244l0.088,0.165l0.1-0.165l1.705-2.244h0.803l-2.188,2.883l2.188,2.849h-0.803
			l-1.705-2.233l-0.1-0.153l-0.088,0.153l-1.705,2.233h-0.814l2.189-2.849l-2.189-2.883H265.695z"/>
		<path fill="#FFFFFF" d="M263.573,63.231c0,0.374-0.071,0.725-0.216,1.051c-0.143,0.326-0.336,0.61-0.582,0.853
			c-0.246,0.242-0.537,0.433-0.875,0.572s-0.699,0.209-1.088,0.209c-0.412,0-0.789-0.075-1.133-0.226
			c-0.346-0.151-0.644-0.365-0.893-0.644c-0.249-0.279-0.441-0.622-0.577-1.028c-0.136-0.407-0.203-0.864-0.203-1.37
			c0-0.792,0.069-1.482,0.209-2.073c0.14-0.59,0.335-1.082,0.589-1.474c0.252-0.393,0.555-0.685,0.906-0.875
			c0.354-0.19,0.745-0.286,1.178-0.286c0.514,0,0.976,0.129,1.387,0.385c0.41,0.257,0.723,0.613,0.935,1.067l-0.483,0.44
			c-0.146-0.374-0.389-0.673-0.727-0.896c-0.337-0.224-0.711-0.336-1.122-0.336c-0.321,0-0.614,0.077-0.88,0.231
			c-0.264,0.153-0.489,0.376-0.676,0.665c-0.188,0.29-0.334,0.647-0.44,1.072c-0.106,0.426-0.159,0.906-0.159,1.441
			c0.162-0.433,0.438-0.777,0.83-1.034c0.393-0.257,0.838-0.385,1.338-0.385c0.373,0,0.724,0.067,1.049,0.203
			c0.326,0.136,0.611,0.323,0.854,0.562c0.242,0.238,0.434,0.519,0.572,0.841C263.504,62.52,263.573,62.865,263.573,63.231z
			 M260.823,65.255c0.278,0,0.54-0.054,0.786-0.16c0.246-0.104,0.463-0.251,0.648-0.434c0.188-0.184,0.334-0.398,0.44-0.644
			c0.104-0.246,0.159-0.508,0.159-0.787c0-0.278-0.056-0.54-0.166-0.786c-0.109-0.246-0.256-0.46-0.439-0.644
			c-0.184-0.184-0.398-0.328-0.648-0.435c-0.25-0.106-0.51-0.159-0.781-0.159c-0.277,0-0.543,0.053-0.791,0.159
			c-0.249,0.106-0.469,0.251-0.654,0.435c-0.188,0.184-0.334,0.397-0.439,0.644c-0.106,0.247-0.16,0.508-0.16,0.786
			c0,0.279,0.056,0.539,0.166,0.781c0.109,0.242,0.259,0.456,0.445,0.645c0.188,0.187,0.402,0.334,0.648,0.438
			C260.282,65.202,260.545,65.255,260.823,65.255z"/>
		<path fill="#FFFFFF" d="M270.218,62.583c0,0.483-0.069,0.929-0.209,1.336c-0.14,0.407-0.332,0.759-0.577,1.057
			c-0.246,0.297-0.537,0.527-0.875,0.692s-0.703,0.248-1.101,0.248c-0.396,0-0.763-0.083-1.101-0.248s-0.629-0.396-0.875-0.692
			c-0.244-0.298-0.438-0.649-0.576-1.057s-0.209-0.853-0.209-1.336c0-0.484,0.068-0.93,0.209-1.337
			c0.14-0.407,0.332-0.759,0.576-1.056c0.246-0.297,0.537-0.53,0.875-0.699c0.338-0.168,0.705-0.253,1.101-0.253
			s0.763,0.085,1.101,0.253c0.338,0.169,0.629,0.402,0.875,0.699c0.245,0.297,0.438,0.648,0.577,1.056
			C270.146,61.653,270.218,62.098,270.218,62.583z M269.458,62.583c0-0.396-0.049-0.756-0.147-1.078
			c-0.1-0.323-0.236-0.6-0.412-0.831c-0.176-0.23-0.387-0.41-0.633-0.539c-0.246-0.128-0.516-0.192-0.81-0.192
			c-0.301,0-0.573,0.064-0.819,0.192c-0.246,0.129-0.455,0.309-0.633,0.539c-0.176,0.231-0.312,0.508-0.412,0.831
			c-0.099,0.322-0.148,0.682-0.148,1.078s0.051,0.755,0.148,1.078c0.1,0.322,0.236,0.599,0.412,0.83
			c0.178,0.23,0.387,0.409,0.633,0.533c0.246,0.125,0.52,0.188,0.819,0.188c0.294,0,0.563-0.062,0.81-0.188
			c0.246-0.124,0.457-0.303,0.633-0.533c0.176-0.231,0.312-0.508,0.412-0.83C269.409,63.337,269.458,62.978,269.458,62.583z"/>
		<path fill="#FFFFFF" d="M276.982,62.583c0,0.483-0.07,0.929-0.209,1.336c-0.141,0.407-0.332,0.759-0.578,1.057
			c-0.245,0.297-0.537,0.527-0.875,0.692s-0.703,0.248-1.101,0.248c-0.396,0-0.763-0.083-1.1-0.248
			c-0.339-0.165-0.629-0.396-0.875-0.692c-0.245-0.298-0.438-0.649-0.577-1.057s-0.209-0.853-0.209-1.336
			c0-0.484,0.068-0.93,0.209-1.337c0.141-0.407,0.332-0.759,0.577-1.056c0.246-0.297,0.536-0.53,0.875-0.699
			c0.337-0.168,0.704-0.253,1.1-0.253c0.396,0,0.763,0.085,1.101,0.253c0.338,0.169,0.63,0.402,0.875,0.699
			c0.246,0.297,0.438,0.648,0.578,1.056C276.912,61.653,276.982,62.098,276.982,62.583z M276.223,62.583
			c0-0.396-0.049-0.756-0.147-1.078c-0.099-0.323-0.236-0.6-0.412-0.831c-0.177-0.23-0.388-0.41-0.634-0.539
			c-0.244-0.128-0.514-0.192-0.809-0.192c-0.301,0-0.572,0.064-0.818,0.192c-0.246,0.129-0.457,0.309-0.633,0.539
			c-0.177,0.231-0.313,0.508-0.412,0.831c-0.1,0.322-0.148,0.682-0.148,1.078s0.05,0.755,0.148,1.078
			c0.099,0.322,0.235,0.599,0.412,0.83c0.176,0.23,0.387,0.409,0.633,0.533c0.246,0.125,0.519,0.188,0.818,0.188
			c0.295,0,0.563-0.062,0.809-0.188c0.246-0.124,0.457-0.303,0.634-0.533c0.176-0.231,0.313-0.508,0.412-0.83
			C276.174,63.337,276.223,62.978,276.223,62.583z"/>
	</g>
</g>
<g>
	<rect x="44" y="280" fill="#CCCCCC" width="199" height="48"/>
	<rect x="44" y="42" fill="#CCCCCC" width="199" height="48"/>
	<rect x="183" y="97" fill="#CCCCCC" width="60" height="177"/>
	<rect x="51" y="3" width="185" height="36"/>
	<rect x="44" y="97" fill="#CCCCCC" width="132" height="177"/>
	<rect x="70" y="66" width="147" height="147"/>
	<g>
		<path fill="#FFFFFF" d="M126.214,25v-6.413l-2.85,4.961h-0.45l-2.86-4.961V25h-0.759v-7.81h0.781l3.058,5.346l3.058-5.346h0.781
			V25H126.214z"/>
		<path fill="#FFFFFF" d="M130.284,25.11c-0.294,0-0.562-0.046-0.804-0.137c-0.241-0.092-0.449-0.218-0.621-0.38
			c-0.173-0.161-0.307-0.348-0.401-0.561c-0.096-0.213-0.144-0.438-0.144-0.671c0-0.264,0.059-0.504,0.177-0.72
			c0.117-0.216,0.282-0.402,0.495-0.556c0.212-0.154,0.467-0.273,0.764-0.357c0.298-0.084,0.626-0.126,0.985-0.126
			c0.285,0,0.579,0.026,0.88,0.077c0.3,0.051,0.568,0.125,0.803,0.22v-0.517c0-0.506-0.145-0.907-0.435-1.205
			c-0.29-0.297-0.681-0.445-1.172-0.445c-0.308,0-0.614,0.059-0.918,0.176c-0.305,0.117-0.614,0.286-0.93,0.506l-0.264-0.495
			c0.374-0.249,0.736-0.436,1.089-0.561c0.352-0.125,0.719-0.187,1.1-0.187c0.697,0,1.25,0.202,1.661,0.605
			c0.411,0.403,0.616,0.961,0.616,1.672v2.585c0,0.205,0.088,0.308,0.264,0.308V25c-0.059,0.007-0.113,0.013-0.165,0.017
			c-0.051,0.003-0.095,0.005-0.132,0.005c-0.146,0-0.28-0.044-0.401-0.132c-0.121-0.088-0.188-0.22-0.203-0.396l-0.022-0.451
			c-0.249,0.337-0.577,0.6-0.984,0.787C131.115,25.017,130.702,25.11,130.284,25.11z M130.471,24.538
			c0.33,0,0.658-0.072,0.984-0.214c0.326-0.143,0.585-0.339,0.775-0.589c0.052-0.066,0.096-0.137,0.133-0.214
			c0.036-0.077,0.055-0.148,0.055-0.214v-0.935c-0.249-0.095-0.51-0.169-0.781-0.22c-0.271-0.051-0.535-0.077-0.792-0.077
			c-0.535,0-0.97,0.108-1.304,0.324c-0.333,0.216-0.5,0.515-0.5,0.896c0,0.154,0.029,0.305,0.088,0.451s0.148,0.279,0.27,0.396
			c0.122,0.117,0.27,0.213,0.445,0.286C130.019,24.501,130.229,24.538,130.471,24.538z"/>
		<path fill="#FFFFFF" d="M136.718,25.11c-0.447,0-0.884-0.073-1.309-0.22c-0.426-0.147-0.792-0.359-1.1-0.638l0.341-0.506
			c0.322,0.264,0.65,0.462,0.984,0.594c0.334,0.132,0.691,0.198,1.072,0.198c0.462,0,0.831-0.094,1.105-0.281
			c0.275-0.187,0.413-0.453,0.413-0.797c0-0.161-0.037-0.295-0.11-0.401c-0.073-0.106-0.182-0.2-0.324-0.281
			c-0.144-0.081-0.323-0.152-0.539-0.214c-0.217-0.062-0.468-0.126-0.754-0.192c-0.33-0.081-0.616-0.161-0.857-0.242
			c-0.242-0.081-0.442-0.172-0.6-0.275c-0.158-0.103-0.275-0.229-0.353-0.379s-0.115-0.339-0.115-0.566
			c0-0.286,0.057-0.539,0.171-0.759c0.113-0.22,0.268-0.401,0.462-0.544c0.194-0.143,0.421-0.251,0.682-0.325
			c0.261-0.073,0.537-0.11,0.83-0.11c0.44,0,0.84,0.072,1.199,0.214c0.359,0.143,0.649,0.332,0.869,0.567l-0.363,0.44
			c-0.212-0.22-0.471-0.385-0.775-0.495s-0.621-0.165-0.951-0.165c-0.198,0-0.382,0.021-0.55,0.061
			c-0.169,0.041-0.317,0.104-0.445,0.192c-0.129,0.088-0.229,0.2-0.303,0.335c-0.073,0.136-0.11,0.295-0.11,0.479
			c0,0.154,0.025,0.279,0.077,0.374c0.051,0.096,0.136,0.178,0.253,0.248c0.117,0.07,0.266,0.132,0.445,0.187
			c0.179,0.055,0.398,0.112,0.654,0.17c0.367,0.088,0.689,0.176,0.969,0.264c0.278,0.088,0.511,0.191,0.698,0.308
			c0.187,0.117,0.328,0.26,0.424,0.429c0.095,0.169,0.143,0.374,0.143,0.616c0,0.528-0.202,0.946-0.604,1.254
			C137.942,24.956,137.4,25.11,136.718,25.11z"/>
		<path fill="#FFFFFF" d="M142.912,24.725c-0.044,0.022-0.108,0.051-0.192,0.088c-0.085,0.037-0.182,0.073-0.292,0.11
			c-0.109,0.037-0.234,0.07-0.374,0.099c-0.14,0.029-0.286,0.044-0.439,0.044c-0.162,0-0.315-0.022-0.462-0.066
			s-0.275-0.112-0.386-0.204c-0.109-0.091-0.197-0.207-0.264-0.346c-0.066-0.14-0.099-0.301-0.099-0.484v-4.103h-0.792v-0.594h0.792
			v-1.936h0.748v1.936h1.319v0.594h-1.319v3.894c0.015,0.213,0.088,0.369,0.22,0.468s0.289,0.148,0.473,0.148
			c0.213,0,0.399-0.035,0.562-0.104c0.161-0.07,0.264-0.119,0.308-0.148L142.912,24.725z"/>
		<path fill="#FFFFFF" d="M148.609,25h-0.748v-3.201c0-0.652-0.112-1.14-0.336-1.463c-0.225-0.323-0.553-0.484-0.984-0.484
			c-0.213,0-0.423,0.042-0.632,0.126s-0.405,0.2-0.589,0.347c-0.185,0.146-0.344,0.319-0.479,0.517
			c-0.136,0.198-0.235,0.415-0.303,0.649V25h-0.748v-8.03h0.748v3.597c0.233-0.433,0.554-0.773,0.957-1.023
			c0.403-0.249,0.836-0.374,1.298-0.374c0.33,0,0.609,0.061,0.842,0.182s0.418,0.29,0.562,0.506
			c0.143,0.216,0.246,0.477,0.312,0.781c0.065,0.304,0.1,0.64,0.1,1.006V25z"/>
		<path fill="#FFFFFF" d="M152.668,25.11c-0.418,0-0.803-0.079-1.154-0.236c-0.353-0.158-0.656-0.374-0.912-0.649
			c-0.258-0.275-0.457-0.592-0.601-0.952s-0.215-0.744-0.215-1.155c0-0.403,0.071-0.783,0.215-1.139
			c0.144-0.355,0.343-0.667,0.601-0.935c0.256-0.268,0.559-0.48,0.906-0.638c0.348-0.158,0.731-0.237,1.149-0.237
			s0.802,0.079,1.149,0.237c0.348,0.158,0.646,0.372,0.896,0.643c0.25,0.271,0.444,0.583,0.583,0.935
			c0.14,0.352,0.209,0.726,0.209,1.122c0,0.059-0.002,0.118-0.006,0.176c-0.004,0.059-0.01,0.099-0.016,0.121h-4.896
			c0.021,0.308,0.094,0.592,0.215,0.853c0.121,0.261,0.275,0.486,0.462,0.677c0.188,0.191,0.403,0.339,0.649,0.445
			c0.244,0.106,0.508,0.16,0.785,0.16c0.19,0,0.379-0.026,0.562-0.077c0.185-0.051,0.353-0.121,0.507-0.209
			c0.153-0.088,0.291-0.196,0.412-0.324c0.121-0.128,0.215-0.27,0.28-0.424l0.649,0.176c-0.089,0.212-0.214,0.405-0.375,0.577
			c-0.16,0.172-0.349,0.323-0.562,0.451s-0.447,0.228-0.704,0.297C153.204,25.075,152.939,25.11,152.668,25.11z M154.779,21.832
			c-0.021-0.308-0.094-0.588-0.213-0.841c-0.121-0.253-0.275-0.471-0.463-0.655c-0.188-0.183-0.405-0.326-0.654-0.429
			c-0.249-0.103-0.514-0.154-0.792-0.154s-0.544,0.051-0.792,0.154c-0.249,0.103-0.469,0.246-0.654,0.429
			c-0.188,0.184-0.338,0.403-0.451,0.66s-0.182,0.535-0.203,0.836H154.779z"/>
		<path fill="#FFFFFF" d="M158.136,25.11c-0.294,0-0.562-0.046-0.804-0.137c-0.241-0.092-0.449-0.218-0.621-0.38
			c-0.173-0.161-0.307-0.348-0.4-0.561c-0.097-0.213-0.145-0.438-0.145-0.671c0-0.264,0.059-0.504,0.177-0.72
			c0.117-0.216,0.282-0.402,0.495-0.556c0.212-0.154,0.467-0.273,0.764-0.357c0.299-0.084,0.627-0.126,0.985-0.126
			c0.285,0,0.579,0.026,0.88,0.077c0.301,0.051,0.568,0.125,0.803,0.22v-0.517c0-0.506-0.145-0.907-0.435-1.205
			c-0.29-0.297-0.681-0.445-1.172-0.445c-0.308,0-0.614,0.059-0.918,0.176c-0.306,0.117-0.614,0.286-0.931,0.506l-0.264-0.495
			c0.374-0.249,0.736-0.436,1.09-0.561c0.352-0.125,0.719-0.187,1.1-0.187c0.697,0,1.25,0.202,1.66,0.605
			c0.412,0.403,0.617,0.961,0.617,1.672v2.585c0,0.205,0.088,0.308,0.264,0.308V25c-0.059,0.007-0.113,0.013-0.165,0.017
			c-0.052,0.003-0.095,0.005-0.132,0.005c-0.146,0-0.28-0.044-0.401-0.132c-0.121-0.088-0.188-0.22-0.203-0.396l-0.022-0.451
			c-0.248,0.337-0.576,0.6-0.983,0.787S158.555,25.11,158.136,25.11z M158.322,24.538c0.33,0,0.658-0.072,0.984-0.214
			c0.325-0.143,0.584-0.339,0.774-0.589c0.052-0.066,0.096-0.137,0.133-0.214c0.036-0.077,0.056-0.148,0.056-0.214v-0.935
			c-0.25-0.095-0.511-0.169-0.781-0.22c-0.271-0.051-0.535-0.077-0.793-0.077c-0.534,0-0.969,0.108-1.303,0.324
			c-0.334,0.216-0.5,0.515-0.5,0.896c0,0.154,0.028,0.305,0.088,0.451c0.059,0.146,0.147,0.279,0.27,0.396
			c0.122,0.117,0.27,0.213,0.445,0.286C157.87,24.501,158.08,24.538,158.322,24.538z"/>
		<path fill="#FFFFFF" d="M165.021,25.11c-0.396,0-0.764-0.083-1.101-0.248c-0.338-0.165-0.629-0.383-0.875-0.654
			c-0.245-0.271-0.437-0.585-0.571-0.94s-0.203-0.728-0.203-1.117c0-0.403,0.065-0.787,0.197-1.149
			c0.133-0.362,0.313-0.68,0.545-0.952c0.23-0.271,0.506-0.485,0.824-0.643c0.319-0.158,0.67-0.237,1.051-0.237
			c0.484,0,0.913,0.126,1.287,0.379s0.672,0.56,0.891,0.918V16.97h0.748v7.062c0,0.205,0.088,0.308,0.266,0.308V25
			c-0.125,0.022-0.225,0.033-0.297,0.033c-0.184,0-0.334-0.053-0.451-0.16s-0.176-0.233-0.176-0.379v-0.605
			c-0.235,0.374-0.545,0.671-0.93,0.891C165.84,25,165.438,25.11,165.021,25.11z M165.175,24.45c0.19,0,0.392-0.037,0.601-0.11
			c0.209-0.073,0.402-0.174,0.582-0.302c0.181-0.128,0.336-0.279,0.469-0.451c0.132-0.172,0.212-0.357,0.24-0.556V21.26
			c-0.072-0.198-0.181-0.383-0.323-0.555c-0.144-0.172-0.306-0.325-0.484-0.457s-0.37-0.235-0.571-0.308
			c-0.201-0.073-0.4-0.11-0.6-0.11c-0.309,0-0.589,0.066-0.842,0.198c-0.253,0.132-0.469,0.307-0.645,0.522
			c-0.176,0.217-0.312,0.464-0.412,0.743c-0.1,0.279-0.147,0.565-0.147,0.858c0,0.308,0.056,0.602,0.165,0.88
			c0.109,0.279,0.26,0.523,0.451,0.732c0.189,0.209,0.416,0.375,0.676,0.5S164.874,24.45,165.175,24.45z"/>
	</g>
	<g>
		<path fill="#FFFFFF" d="M128.695,136.922c0,0.307-0.066,0.583-0.2,0.83c-0.134,0.247-0.313,0.458-0.54,0.635
			c-0.227,0.177-0.489,0.312-0.785,0.405c-0.297,0.093-0.608,0.14-0.935,0.14c-0.36,0-0.687-0.055-0.98-0.165
			c-0.293-0.11-0.547-0.256-0.76-0.44c-0.214-0.183-0.378-0.398-0.495-0.645c-0.117-0.247-0.175-0.51-0.175-0.79
			c0-0.233,0.043-0.45,0.13-0.65c0.086-0.2,0.201-0.378,0.345-0.535s0.305-0.29,0.485-0.4c0.18-0.11,0.363-0.195,0.55-0.255
			c-0.173-0.06-0.335-0.14-0.485-0.24c-0.15-0.1-0.282-0.213-0.395-0.34c-0.114-0.126-0.204-0.27-0.27-0.43
			c-0.067-0.16-0.1-0.33-0.1-0.51c0-0.287,0.065-0.54,0.195-0.76c0.13-0.22,0.298-0.405,0.505-0.555c0.207-0.15,0.44-0.263,0.7-0.34
			c0.26-0.077,0.52-0.115,0.78-0.115c0.26,0,0.52,0.039,0.78,0.115s0.493,0.19,0.7,0.34c0.207,0.15,0.375,0.333,0.505,0.55
			c0.13,0.217,0.195,0.469,0.195,0.755c0,0.187-0.035,0.358-0.105,0.515c-0.07,0.157-0.162,0.3-0.275,0.43s-0.249,0.245-0.405,0.345
			c-0.157,0.1-0.319,0.18-0.485,0.24c0.207,0.074,0.403,0.168,0.59,0.285c0.187,0.117,0.348,0.255,0.485,0.415
			c0.137,0.16,0.245,0.338,0.325,0.535C128.655,136.484,128.695,136.696,128.695,136.922z M128.185,136.882
			c0-0.253-0.059-0.48-0.175-0.68c-0.117-0.2-0.268-0.368-0.455-0.505c-0.187-0.137-0.395-0.242-0.625-0.315
			c-0.23-0.073-0.458-0.11-0.685-0.11c-0.233,0-0.464,0.038-0.69,0.115s-0.43,0.185-0.61,0.325c-0.18,0.14-0.327,0.31-0.44,0.51
			c-0.113,0.2-0.17,0.423-0.17,0.67c0,0.253,0.058,0.479,0.175,0.675s0.269,0.363,0.455,0.5s0.395,0.242,0.625,0.315
			s0.458,0.11,0.685,0.11s0.455-0.038,0.685-0.115s0.435-0.185,0.615-0.325c0.18-0.14,0.327-0.308,0.44-0.505
			C128.128,137.351,128.185,137.129,128.185,136.882z M124.585,133.552c0,0.213,0.052,0.4,0.155,0.56
			c0.104,0.16,0.235,0.297,0.395,0.41c0.16,0.113,0.338,0.198,0.535,0.255s0.392,0.085,0.585,0.085s0.39-0.03,0.59-0.09
			c0.2-0.06,0.38-0.146,0.54-0.26c0.16-0.113,0.292-0.251,0.395-0.415c0.104-0.163,0.155-0.352,0.155-0.565
			c0-0.207-0.048-0.392-0.145-0.555c-0.097-0.164-0.224-0.3-0.38-0.41c-0.157-0.11-0.337-0.195-0.54-0.255
			c-0.204-0.06-0.412-0.09-0.625-0.09c-0.214,0-0.42,0.03-0.62,0.09c-0.2,0.06-0.377,0.148-0.53,0.265
			c-0.153,0.117-0.276,0.257-0.37,0.42C124.631,133.161,124.585,133.346,124.585,133.552z"/>
		<path fill="#FFFFFF" d="M134.805,135.932c0,0.44-0.063,0.845-0.19,1.215c-0.126,0.37-0.3,0.69-0.52,0.96
			c-0.22,0.27-0.481,0.48-0.785,0.63c-0.304,0.15-0.635,0.225-0.995,0.225s-0.692-0.075-0.995-0.225s-0.567-0.36-0.79-0.63
			s-0.396-0.59-0.52-0.96c-0.124-0.37-0.185-0.775-0.185-1.215s0.062-0.845,0.185-1.215s0.297-0.69,0.52-0.96
			s0.487-0.481,0.79-0.635c0.303-0.153,0.635-0.23,0.995-0.23s0.691,0.077,0.995,0.23c0.303,0.154,0.565,0.365,0.785,0.635
			c0.22,0.27,0.394,0.59,0.52,0.96S134.805,135.492,134.805,135.932z M134.295,135.932c0-0.38-0.048-0.728-0.145-1.045
			c-0.097-0.316-0.232-0.586-0.405-0.81c-0.173-0.223-0.381-0.398-0.625-0.525c-0.243-0.126-0.512-0.19-0.805-0.19
			c-0.293,0-0.563,0.063-0.81,0.19c-0.247,0.127-0.457,0.302-0.63,0.525c-0.173,0.224-0.309,0.494-0.405,0.81
			c-0.097,0.317-0.145,0.665-0.145,1.045c0,0.38,0.048,0.727,0.145,1.04c0.097,0.313,0.232,0.583,0.405,0.81s0.383,0.402,0.63,0.525
			c0.247,0.124,0.517,0.185,0.81,0.185c0.293,0,0.562-0.062,0.805-0.185c0.244-0.123,0.452-0.298,0.625-0.525
			s0.309-0.497,0.405-0.81C134.247,136.659,134.295,136.312,134.295,135.932z"/>
		<path fill="#FFFFFF" d="M140.965,135.932c0,0.44-0.063,0.845-0.19,1.215c-0.126,0.37-0.3,0.69-0.52,0.96
			c-0.22,0.27-0.481,0.48-0.785,0.63c-0.304,0.15-0.635,0.225-0.995,0.225s-0.692-0.075-0.995-0.225s-0.567-0.36-0.79-0.63
			s-0.396-0.59-0.52-0.96c-0.124-0.37-0.185-0.775-0.185-1.215s0.062-0.845,0.185-1.215s0.297-0.69,0.52-0.96
			s0.487-0.481,0.79-0.635c0.303-0.153,0.635-0.23,0.995-0.23s0.691,0.077,0.995,0.23c0.303,0.154,0.565,0.365,0.785,0.635
			c0.22,0.27,0.394,0.59,0.52,0.96S140.965,135.492,140.965,135.932z M140.455,135.932c0-0.38-0.048-0.728-0.145-1.045
			c-0.097-0.316-0.232-0.586-0.405-0.81c-0.173-0.223-0.381-0.398-0.625-0.525c-0.243-0.126-0.512-0.19-0.805-0.19
			c-0.293,0-0.563,0.063-0.81,0.19c-0.247,0.127-0.457,0.302-0.63,0.525c-0.173,0.224-0.309,0.494-0.405,0.81
			c-0.097,0.317-0.145,0.665-0.145,1.045c0,0.38,0.048,0.727,0.145,1.04c0.097,0.313,0.232,0.583,0.405,0.81s0.383,0.402,0.63,0.525
			c0.247,0.124,0.517,0.185,0.81,0.185c0.293,0,0.562-0.062,0.805-0.185c0.244-0.123,0.452-0.298,0.625-0.525
			s0.309-0.497,0.405-0.81C140.407,136.659,140.455,136.312,140.455,135.932z"/>
		<path fill="#FFFFFF" d="M142.265,133.662l1.67,2.15l0.08,0.14l0.09-0.14l1.671-2.15h0.549l-2.02,2.61l2.02,2.59h-0.56l-1.66-2.14
			l-0.09-0.13l-0.08,0.13l-1.66,2.14h-0.56l2.02-2.59l-2.03-2.61H142.265z"/>
		<path fill="#FFFFFF" d="M149.265,135.762c0.32,0,0.62,0.055,0.9,0.165s0.524,0.265,0.735,0.465c0.209,0.2,0.375,0.438,0.494,0.715
			c0.12,0.276,0.18,0.582,0.18,0.915c0,0.354-0.064,0.671-0.194,0.955c-0.13,0.283-0.306,0.528-0.524,0.735
			c-0.221,0.207-0.478,0.365-0.771,0.475c-0.294,0.11-0.604,0.165-0.931,0.165c-0.253,0-0.494-0.034-0.725-0.1
			c-0.23-0.067-0.443-0.162-0.64-0.285s-0.37-0.27-0.521-0.44s-0.275-0.362-0.375-0.575l0.36-0.21
			c0.187,0.347,0.448,0.625,0.785,0.835s0.708,0.315,1.114,0.315c0.268,0,0.518-0.045,0.75-0.135
			c0.234-0.09,0.436-0.218,0.605-0.385c0.17-0.167,0.305-0.363,0.405-0.59c0.1-0.227,0.149-0.48,0.149-0.76
			c0-0.267-0.048-0.51-0.145-0.73c-0.097-0.22-0.229-0.41-0.395-0.57c-0.168-0.16-0.362-0.283-0.586-0.37
			c-0.223-0.087-0.465-0.13-0.725-0.13c-0.34,0-0.66,0.075-0.96,0.225s-0.547,0.365-0.74,0.645h-0.479
			c0.006-0.046,0.025-0.14,0.055-0.28c0.029-0.14,0.063-0.307,0.1-0.5c0.037-0.193,0.078-0.407,0.125-0.64s0.094-0.467,0.141-0.7
			c0.113-0.546,0.236-1.153,0.369-1.82h3.4v0.47h-3.02l-0.551,2.81c0.193-0.213,0.431-0.378,0.711-0.495
			C148.645,135.821,148.945,135.762,149.265,135.762z"/>
		<path fill="#FFFFFF" d="M154.765,135.762c0.32,0,0.62,0.055,0.9,0.165s0.524,0.265,0.735,0.465c0.209,0.2,0.375,0.438,0.494,0.715
			c0.12,0.276,0.18,0.582,0.18,0.915c0,0.354-0.064,0.671-0.194,0.955c-0.13,0.283-0.306,0.528-0.524,0.735
			c-0.221,0.207-0.478,0.365-0.771,0.475c-0.294,0.11-0.604,0.165-0.931,0.165c-0.253,0-0.494-0.034-0.725-0.1
			c-0.23-0.067-0.443-0.162-0.64-0.285s-0.37-0.27-0.521-0.44s-0.275-0.362-0.375-0.575l0.36-0.21
			c0.187,0.347,0.448,0.625,0.785,0.835s0.708,0.315,1.114,0.315c0.268,0,0.518-0.045,0.75-0.135
			c0.234-0.09,0.436-0.218,0.605-0.385c0.17-0.167,0.305-0.363,0.405-0.59c0.1-0.227,0.149-0.48,0.149-0.76
			c0-0.267-0.048-0.51-0.145-0.73c-0.097-0.22-0.229-0.41-0.395-0.57c-0.168-0.16-0.362-0.283-0.586-0.37
			c-0.223-0.087-0.465-0.13-0.725-0.13c-0.34,0-0.66,0.075-0.96,0.225s-0.547,0.365-0.74,0.645h-0.479
			c0.006-0.046,0.025-0.14,0.055-0.28c0.029-0.14,0.063-0.307,0.1-0.5c0.037-0.193,0.078-0.407,0.125-0.64s0.094-0.467,0.141-0.7
			c0.113-0.546,0.236-1.153,0.369-1.82h3.4v0.47h-3.02l-0.551,2.81c0.193-0.213,0.431-0.378,0.711-0.495
			C154.145,135.821,154.445,135.762,154.765,135.762z"/>
		<path fill="#FFFFFF" d="M163.055,135.932c0,0.44-0.064,0.845-0.19,1.215c-0.126,0.37-0.3,0.69-0.521,0.96
			c-0.219,0.27-0.48,0.48-0.784,0.63s-0.636,0.225-0.995,0.225s-0.691-0.075-0.995-0.225s-0.567-0.36-0.79-0.63
			s-0.396-0.59-0.52-0.96c-0.124-0.37-0.186-0.775-0.186-1.215s0.062-0.845,0.186-1.215c0.123-0.37,0.297-0.69,0.52-0.96
			s0.486-0.481,0.79-0.635c0.304-0.153,0.636-0.23,0.995-0.23s0.691,0.077,0.995,0.23c0.304,0.154,0.565,0.365,0.784,0.635
			c0.221,0.27,0.395,0.59,0.521,0.96S163.055,135.492,163.055,135.932z M162.545,135.932c0-0.38-0.049-0.728-0.146-1.045
			c-0.097-0.316-0.231-0.586-0.405-0.81c-0.174-0.223-0.381-0.398-0.625-0.525c-0.243-0.126-0.512-0.19-0.805-0.19
			s-0.563,0.063-0.811,0.19c-0.246,0.127-0.456,0.302-0.629,0.525c-0.174,0.224-0.309,0.494-0.406,0.81
			c-0.096,0.317-0.145,0.665-0.145,1.045c0,0.38,0.049,0.727,0.145,1.04c0.098,0.313,0.232,0.583,0.406,0.81
			c0.173,0.227,0.383,0.402,0.629,0.525c0.247,0.124,0.518,0.185,0.811,0.185s0.562-0.062,0.805-0.185
			c0.244-0.123,0.451-0.298,0.625-0.525s0.309-0.497,0.405-0.81C162.496,136.659,162.545,136.312,162.545,135.932z"/>
	</g>
</g>
</svg>
