<?xml version="1.0" encoding="utf-8"?>
<!-- Generator: Adobe Illustrator 16.0.0, SVG Export Plug-In . SVG Version: 6.00 Build 0)  -->
<!DOCTYPE svg PUBLIC "-//W3C//DTD SVG 1.1//EN" "http://www.w3.org/Graphics/SVG/1.1/DTD/svg11.dtd">
<svg version="1.1" id="Layer_1" xmlns="http://www.w3.org/2000/svg" xmlns:xlink="http://www.w3.org/1999/xlink" x="0px" y="0px"
	 width="287px" height="340px" viewBox="0 0 287 340" enable-background="new 0 0 287 340" xml:space="preserve">
<g>
	<rect x="44" y="280" fill="#CCCCCC" width="199" height="48"/>
	<rect x="44" y="12" fill="#CCCCCC" width="199" height="48"/>
	<rect x="183" y="97" fill="#CCCCCC" width="60" height="177"/>
	<rect x="51" y="68" width="185" height="21"/>
	<g>
		<rect x="44" y="97" fill="#CCCCCC" width="132" height="177"/>
		<rect x="53" y="249" width="114" height="21"/>
	</g>
	<rect x="189" y="102" width="49" height="49"/>
	<rect x="189" y="157" width="49" height="98"/>
	<rect x="5" y="21" width="29" height="138"/>
	<rect x="253" y="21" width="29" height="138"/>
	<g>
		<path fill="#FFFFFF" d="M125.418,78.903c0-0.374,0.071-0.724,0.215-1.05c0.143-0.326,0.337-0.61,0.583-0.853
			c0.245-0.242,0.537-0.433,0.874-0.572c0.337-0.14,0.7-0.209,1.089-0.209c0.411,0,0.788,0.075,1.133,0.225s0.641,0.365,0.886,0.644
			c0.246,0.279,0.438,0.622,0.578,1.029c0.139,0.407,0.209,0.863,0.209,1.369c0,0.792-0.07,1.483-0.209,2.074
			c-0.14,0.59-0.336,1.082-0.589,1.474c-0.253,0.392-0.556,0.684-0.907,0.875c-0.353,0.19-0.745,0.286-1.178,0.286
			c-0.513,0-0.975-0.128-1.386-0.385c-0.41-0.257-0.723-0.612-0.935-1.067l0.483-0.44c0.146,0.374,0.389,0.673,0.727,0.897
			c0.337,0.223,0.711,0.335,1.122,0.335c0.322,0,0.615-0.077,0.88-0.231c0.264-0.154,0.489-0.376,0.677-0.666
			c0.187-0.29,0.333-0.646,0.439-1.067c0.106-0.421,0.159-0.903,0.159-1.446c-0.161,0.433-0.438,0.777-0.83,1.034
			c-0.393,0.256-0.838,0.385-1.337,0.385c-0.374,0-0.724-0.068-1.05-0.204c-0.326-0.135-0.61-0.322-0.853-0.561
			c-0.242-0.238-0.433-0.519-0.572-0.841S125.418,79.27,125.418,78.903z M128.168,76.879c-0.278,0-0.541,0.053-0.786,0.16
			c-0.246,0.106-0.462,0.251-0.649,0.435c-0.187,0.183-0.334,0.398-0.439,0.644c-0.106,0.246-0.16,0.508-0.16,0.786
			c0,0.279,0.056,0.541,0.165,0.787c0.11,0.246,0.257,0.46,0.44,0.644c0.183,0.184,0.397,0.328,0.644,0.435
			c0.245,0.106,0.508,0.159,0.786,0.159s0.543-0.053,0.792-0.159s0.468-0.251,0.654-0.435c0.188-0.183,0.334-0.398,0.44-0.644
			s0.159-0.508,0.159-0.787c0-0.271-0.055-0.53-0.165-0.775c-0.109-0.246-0.259-0.462-0.445-0.649
			c-0.188-0.187-0.403-0.333-0.649-0.44C128.709,76.932,128.446,76.879,128.168,76.879z"/>
		<path fill="#FFFFFF" d="M136.055,76.78h-4.213v-0.693h5.401l-3.949,7.81h-0.858L136.055,76.78z"/>
		<path fill="#FFFFFF" d="M143.535,79.277c0,0.484-0.07,0.93-0.209,1.336c-0.14,0.407-0.332,0.759-0.578,1.056
			c-0.245,0.297-0.537,0.528-0.874,0.693c-0.338,0.165-0.704,0.248-1.101,0.248c-0.396,0-0.763-0.083-1.1-0.248
			c-0.338-0.165-0.629-0.396-0.875-0.693c-0.245-0.297-0.438-0.649-0.577-1.056c-0.14-0.407-0.209-0.852-0.209-1.336
			s0.069-0.929,0.209-1.336c0.14-0.407,0.332-0.759,0.577-1.056c0.246-0.297,0.537-0.529,0.875-0.698
			c0.337-0.168,0.704-0.253,1.1-0.253s0.763,0.084,1.101,0.253c0.337,0.169,0.629,0.401,0.874,0.698
			c0.246,0.297,0.438,0.649,0.578,1.056C143.465,78.348,143.535,78.793,143.535,79.277z M142.775,79.277
			c0-0.396-0.049-0.755-0.148-1.078c-0.099-0.323-0.236-0.6-0.412-0.831c-0.176-0.231-0.387-0.411-0.633-0.539
			c-0.245-0.128-0.515-0.192-0.809-0.192c-0.301,0-0.573,0.064-0.819,0.192s-0.456,0.308-0.633,0.539
			c-0.176,0.231-0.313,0.508-0.412,0.831c-0.099,0.323-0.148,0.682-0.148,1.078s0.05,0.755,0.148,1.078
			c0.098,0.323,0.236,0.6,0.412,0.831c0.177,0.231,0.387,0.409,0.633,0.534s0.519,0.188,0.819,0.188
			c0.294,0,0.563-0.062,0.809-0.188c0.246-0.126,0.457-0.303,0.633-0.534c0.176-0.231,0.313-0.508,0.412-0.831
			C142.727,80.032,142.775,79.673,142.775,79.277z"/>
		<path fill="#FFFFFF" d="M145.098,76.769l1.715,2.244l0.088,0.165l0.101-0.165l1.705-2.244h0.804l-2.188,2.882l2.188,2.849h-0.804
			L147,80.267l-0.1-0.154l-0.088,0.154l-1.705,2.233h-0.813l2.188-2.849l-2.188-2.882H145.098z"/>
		<path fill="#FFFFFF" d="M150.068,78.903c0-0.374,0.07-0.724,0.215-1.05c0.143-0.326,0.337-0.61,0.583-0.853
			c0.245-0.242,0.536-0.433,0.874-0.572c0.337-0.14,0.699-0.209,1.089-0.209c0.411,0,0.788,0.075,1.133,0.225
			s0.642,0.365,0.886,0.644c0.246,0.279,0.438,0.622,0.578,1.029c0.139,0.407,0.209,0.863,0.209,1.369
			c0,0.792-0.07,1.483-0.209,2.074c-0.14,0.59-0.336,1.082-0.589,1.474c-0.253,0.392-0.556,0.684-0.907,0.875
			c-0.353,0.19-0.744,0.286-1.178,0.286c-0.514,0-0.975-0.128-1.386-0.385c-0.41-0.257-0.724-0.612-0.935-1.067l0.481-0.44
			c0.146,0.374,0.389,0.673,0.728,0.897c0.338,0.223,0.711,0.335,1.123,0.335c0.32,0,0.613-0.077,0.879-0.231
			c0.265-0.154,0.488-0.376,0.678-0.666c0.187-0.29,0.332-0.646,0.438-1.067c0.105-0.421,0.159-0.903,0.159-1.446
			c-0.161,0.433-0.438,0.777-0.83,1.034c-0.394,0.256-0.838,0.385-1.337,0.385c-0.374,0-0.725-0.068-1.05-0.204
			c-0.326-0.135-0.61-0.322-0.854-0.561c-0.242-0.238-0.433-0.519-0.572-0.841C150.137,79.616,150.068,79.27,150.068,78.903z
			 M152.818,76.879c-0.278,0-0.541,0.053-0.786,0.16c-0.246,0.106-0.462,0.251-0.649,0.435c-0.188,0.183-0.334,0.398-0.439,0.644
			c-0.104,0.246-0.158,0.508-0.158,0.786c0,0.279,0.056,0.541,0.165,0.787c0.108,0.246,0.257,0.46,0.438,0.644
			c0.185,0.184,0.397,0.328,0.646,0.435c0.243,0.106,0.508,0.159,0.784,0.159c0.279,0,0.543-0.053,0.793-0.159
			c0.248-0.106,0.469-0.251,0.654-0.435c0.188-0.183,0.334-0.398,0.439-0.644s0.158-0.508,0.158-0.787
			c0-0.271-0.055-0.53-0.164-0.775c-0.109-0.246-0.26-0.462-0.445-0.649c-0.188-0.187-0.402-0.333-0.648-0.44
			C153.359,76.932,153.098,76.879,152.818,76.879z"/>
		<path fill="#FFFFFF" d="M162.279,79.277c0,0.484-0.07,0.93-0.209,1.336c-0.141,0.407-0.332,0.759-0.578,1.056
			c-0.245,0.297-0.537,0.528-0.874,0.693c-0.339,0.165-0.704,0.248-1.101,0.248c-0.397,0-0.765-0.083-1.102-0.248
			c-0.338-0.165-0.629-0.396-0.875-0.693c-0.245-0.297-0.438-0.649-0.577-1.056c-0.14-0.407-0.209-0.852-0.209-1.336
			s0.069-0.929,0.209-1.336c0.142-0.407,0.332-0.759,0.577-1.056c0.246-0.297,0.537-0.529,0.875-0.698
			c0.337-0.168,0.704-0.253,1.102-0.253c0.396,0,0.762,0.084,1.101,0.253c0.337,0.169,0.629,0.401,0.874,0.698
			c0.246,0.297,0.438,0.649,0.578,1.056C162.209,78.348,162.279,78.793,162.279,79.277z M161.52,79.277
			c0-0.396-0.049-0.755-0.146-1.078c-0.1-0.323-0.234-0.6-0.412-0.831c-0.176-0.231-0.387-0.411-0.633-0.539
			c-0.245-0.128-0.516-0.192-0.811-0.192c-0.301,0-0.572,0.064-0.817,0.192c-0.246,0.128-0.456,0.308-0.634,0.539
			c-0.176,0.231-0.312,0.508-0.412,0.831c-0.1,0.323-0.147,0.682-0.147,1.078s0.052,0.755,0.147,1.078
			c0.098,0.323,0.236,0.6,0.412,0.831c0.178,0.231,0.388,0.409,0.634,0.534c0.245,0.125,0.519,0.188,0.817,0.188
			c0.295,0,0.563-0.062,0.811-0.188c0.247-0.126,0.457-0.303,0.633-0.534c0.178-0.231,0.312-0.508,0.412-0.831
			S161.52,79.673,161.52,79.277z"/>
	</g>
	<g>
		<path fill="#FFFFFF" d="M196.284,127.404c0.483,0.081,0.87,0.301,1.159,0.66c0.291,0.359,0.436,0.803,0.436,1.331
			c0,0.33-0.061,0.632-0.182,0.908c-0.121,0.275-0.293,0.509-0.518,0.704c-0.225,0.195-0.49,0.345-0.804,0.451
			s-0.659,0.16-1.04,0.16c-0.559,0-1.045-0.112-1.463-0.335c-0.418-0.224-0.732-0.534-0.946-0.93l0.519-0.473
			c0.154,0.323,0.39,0.579,0.705,0.77c0.312,0.191,0.711,0.286,1.188,0.286c0.551,0,0.982-0.134,1.299-0.401
			c0.314-0.268,0.473-0.651,0.473-1.15c0-0.506-0.164-0.905-0.493-1.199c-0.33-0.294-0.808-0.44-1.433-0.44h-0.272v-0.638h0.297
			c0.563,0,0.997-0.132,1.298-0.396c0.303-0.264,0.451-0.605,0.451-1.023c0-0.22-0.04-0.413-0.121-0.578s-0.191-0.304-0.336-0.418
			c-0.145-0.113-0.312-0.2-0.506-0.258c-0.194-0.058-0.405-0.088-0.633-0.088c-0.418,0-0.786,0.093-1.104,0.28
			c-0.317,0.187-0.562,0.445-0.721,0.775l-0.483-0.462c0.088-0.19,0.213-0.365,0.373-0.522c0.161-0.157,0.346-0.292,0.551-0.401
			c0.207-0.11,0.434-0.196,0.684-0.259c0.249-0.062,0.506-0.093,0.77-0.093c0.338,0,0.647,0.048,0.93,0.143
			c0.283,0.095,0.527,0.229,0.731,0.401c0.205,0.172,0.365,0.379,0.479,0.622c0.113,0.242,0.171,0.51,0.171,0.803
			c0,0.22-0.033,0.431-0.101,0.633c-0.064,0.202-0.16,0.381-0.285,0.539c-0.125,0.158-0.276,0.29-0.457,0.396
			C196.717,127.308,196.512,127.375,196.284,127.404z"/>
		<path fill="#FFFFFF" d="M204.545,126.777c0,0.484-0.07,0.93-0.209,1.336c-0.141,0.407-0.332,0.759-0.578,1.056
			c-0.244,0.297-0.537,0.528-0.874,0.693c-0.338,0.165-0.704,0.248-1.101,0.248s-0.764-0.083-1.1-0.248
			c-0.338-0.165-0.629-0.396-0.875-0.693s-0.438-0.649-0.578-1.056c-0.141-0.407-0.209-0.854-0.209-1.336s0.068-0.929,0.209-1.336
			c0.141-0.407,0.332-0.759,0.578-1.056c0.246-0.297,0.537-0.529,0.875-0.698c0.336-0.168,0.703-0.253,1.1-0.253
			s0.763,0.084,1.101,0.253c0.337,0.169,0.63,0.401,0.874,0.698c0.246,0.297,0.438,0.649,0.578,1.056
			C204.475,125.848,204.545,126.293,204.545,126.777z M203.785,126.777c0-0.396-0.049-0.755-0.148-1.078
			c-0.099-0.323-0.236-0.6-0.412-0.831c-0.176-0.231-0.387-0.411-0.633-0.539c-0.244-0.128-0.515-0.192-0.809-0.192
			c-0.301,0-0.573,0.064-0.819,0.192s-0.456,0.308-0.633,0.539c-0.177,0.231-0.313,0.508-0.412,0.831
			c-0.099,0.323-0.147,0.682-0.147,1.078s0.049,0.755,0.147,1.078s0.235,0.6,0.412,0.831s0.387,0.409,0.633,0.534
			s0.519,0.188,0.819,0.188c0.294,0,0.562-0.062,0.809-0.188c0.247-0.126,0.457-0.303,0.633-0.534s0.313-0.508,0.412-0.831
			C203.736,127.532,203.785,127.173,203.785,126.777z"/>
		<path fill="#FFFFFF" d="M211.311,126.777c0,0.484-0.068,0.93-0.209,1.336c-0.14,0.407-0.332,0.759-0.578,1.056
			c-0.244,0.297-0.537,0.528-0.873,0.693c-0.338,0.165-0.705,0.248-1.102,0.248s-0.763-0.083-1.1-0.248
			c-0.338-0.165-0.629-0.396-0.875-0.693c-0.245-0.297-0.438-0.649-0.577-1.056c-0.14-0.407-0.209-0.854-0.209-1.336
			s0.069-0.929,0.209-1.336c0.14-0.407,0.332-0.759,0.577-1.056c0.246-0.297,0.537-0.529,0.875-0.698
			c0.337-0.168,0.703-0.253,1.1-0.253s0.764,0.084,1.102,0.253c0.336,0.169,0.629,0.401,0.873,0.698
			c0.246,0.297,0.438,0.649,0.578,1.056C211.24,125.848,211.311,126.293,211.311,126.777z M210.551,126.777
			c0-0.396-0.049-0.755-0.148-1.078c-0.098-0.323-0.234-0.6-0.41-0.831c-0.178-0.231-0.389-0.411-0.635-0.539
			c-0.244-0.128-0.515-0.192-0.809-0.192c-0.301,0-0.572,0.064-0.818,0.192s-0.457,0.308-0.633,0.539
			c-0.177,0.231-0.312,0.508-0.412,0.831c-0.1,0.323-0.147,0.682-0.147,1.078s0.05,0.755,0.147,1.078
			c0.099,0.323,0.235,0.6,0.412,0.831c0.176,0.231,0.387,0.409,0.633,0.534s0.52,0.188,0.818,0.188c0.294,0,0.562-0.062,0.809-0.188
			c0.248-0.126,0.457-0.303,0.635-0.534c0.176-0.231,0.312-0.508,0.41-0.831C210.502,127.532,210.551,127.173,210.551,126.777z"/>
		<path fill="#FFFFFF" d="M212.872,124.269l1.716,2.244l0.088,0.165l0.1-0.165l1.705-2.244h0.805l-2.188,2.882l2.188,2.849h-0.805
			l-1.705-2.233l-0.1-0.154l-0.088,0.154L212.883,130h-0.814l2.189-2.849l-2.189-2.882H212.872z"/>
		<path fill="#FFFFFF" d="M217.986,130c0-0.271,0.022-0.537,0.072-0.797c0.047-0.26,0.139-0.512,0.272-0.753
			c0.136-0.242,0.321-0.475,0.562-0.699c0.238-0.224,0.543-0.435,0.918-0.632c0.197-0.103,0.412-0.207,0.645-0.313
			s0.443-0.226,0.645-0.358c0.197-0.132,0.36-0.278,0.488-0.44c0.129-0.161,0.193-0.352,0.193-0.572
			c0-0.139-0.031-0.279-0.096-0.418c-0.062-0.139-0.152-0.264-0.273-0.374s-0.271-0.198-0.451-0.264s-0.387-0.099-0.621-0.099
			c-0.24,0-0.46,0.035-0.652,0.104c-0.194,0.07-0.365,0.152-0.514,0.248c-0.146,0.096-0.271,0.196-0.367,0.303
			c-0.101,0.106-0.176,0.192-0.227,0.258l-0.495-0.539c0.044-0.044,0.128-0.125,0.253-0.242c0.125-0.117,0.288-0.235,0.489-0.352
			c0.2-0.117,0.438-0.222,0.715-0.313c0.274-0.092,0.585-0.138,0.931-0.138c0.329,0,0.625,0.046,0.887,0.138
			c0.26,0.092,0.48,0.218,0.664,0.379c0.185,0.162,0.324,0.347,0.418,0.556c0.097,0.209,0.145,0.431,0.145,0.666
			c0,0.308-0.07,0.574-0.215,0.797c-0.143,0.224-0.316,0.416-0.521,0.578c-0.205,0.161-0.416,0.293-0.634,0.396
			c-0.216,0.103-0.394,0.187-0.532,0.253c-0.33,0.146-0.604,0.29-0.826,0.429c-0.219,0.14-0.397,0.283-0.539,0.429
			c-0.139,0.147-0.241,0.308-0.312,0.484c-0.067,0.176-0.118,0.378-0.147,0.605h3.852V130H217.986z"/>
		<path fill="#FFFFFF" d="M226.369,126.568c0.359,0,0.693,0.061,1.001,0.182s0.577,0.292,0.81,0.512
			c0.229,0.22,0.411,0.482,0.543,0.786c0.133,0.305,0.198,0.64,0.198,1.007c0,0.389-0.071,0.742-0.214,1.062
			c-0.145,0.319-0.338,0.59-0.583,0.814c-0.246,0.224-0.534,0.397-0.864,0.522s-0.682,0.187-1.056,0.187
			c-0.279,0-0.545-0.035-0.798-0.104c-0.254-0.07-0.485-0.171-0.698-0.303c-0.213-0.132-0.405-0.29-0.577-0.473
			c-0.173-0.183-0.312-0.389-0.424-0.616l0.495-0.374c0.205,0.359,0.485,0.649,0.842,0.869c0.354,0.22,0.746,0.33,1.171,0.33
			c0.271,0,0.524-0.046,0.76-0.137c0.234-0.092,0.439-0.222,0.615-0.391s0.312-0.37,0.413-0.605c0.099-0.234,0.147-0.491,0.147-0.77
			c0-0.271-0.047-0.519-0.145-0.743c-0.095-0.223-0.229-0.416-0.396-0.577c-0.17-0.161-0.364-0.286-0.59-0.374
			c-0.224-0.088-0.467-0.132-0.729-0.132c-0.353,0-0.683,0.076-0.983,0.226c-0.306,0.15-0.553,0.369-0.742,0.655h-0.692
			c0.007-0.044,0.024-0.143,0.056-0.297c0.028-0.154,0.065-0.337,0.109-0.55c0.044-0.212,0.092-0.449,0.143-0.709
			c0.053-0.26,0.104-0.522,0.154-0.787c0.125-0.616,0.262-1.301,0.407-2.057h3.772v0.693H225.3l-0.538,2.805
			c0.19-0.205,0.424-0.365,0.698-0.479C225.736,126.625,226.039,126.568,226.369,126.568z"/>
		<path fill="#FFFFFF" d="M235.499,126.777c0,0.484-0.069,0.93-0.209,1.336c-0.14,0.407-0.332,0.759-0.578,1.056
			c-0.245,0.297-0.537,0.528-0.874,0.693c-0.338,0.165-0.704,0.248-1.102,0.248c-0.396,0-0.762-0.083-1.101-0.248
			c-0.338-0.165-0.629-0.396-0.875-0.693c-0.243-0.297-0.438-0.649-0.575-1.056c-0.142-0.407-0.209-0.854-0.209-1.336
			s0.067-0.929,0.209-1.336c0.14-0.407,0.332-0.759,0.575-1.056c0.246-0.297,0.537-0.529,0.875-0.698
			c0.339-0.168,0.704-0.253,1.101-0.253c0.396,0,0.764,0.084,1.102,0.253c0.337,0.169,0.629,0.401,0.874,0.698
			c0.246,0.297,0.438,0.649,0.578,1.056C235.43,125.848,235.499,126.293,235.499,126.777z M234.738,126.777
			c0-0.396-0.049-0.755-0.147-1.078c-0.099-0.323-0.235-0.6-0.411-0.831c-0.177-0.231-0.388-0.411-0.634-0.539
			c-0.245-0.128-0.515-0.192-0.81-0.192c-0.301,0-0.572,0.064-0.818,0.192s-0.456,0.308-0.633,0.539
			c-0.176,0.231-0.312,0.508-0.412,0.831c-0.1,0.323-0.148,0.682-0.148,1.078s0.051,0.755,0.148,1.078s0.236,0.6,0.412,0.831
			c0.177,0.231,0.387,0.409,0.633,0.534s0.52,0.188,0.818,0.188c0.295,0,0.562-0.062,0.81-0.188
			c0.247-0.126,0.457-0.303,0.634-0.534c0.176-0.231,0.312-0.508,0.411-0.831S234.738,127.173,234.738,126.777z"/>
	</g>
	<g>
		<path fill="#FFFFFF" d="M97.219,257.279h-4.213v-0.692h5.401l-3.949,7.81H93.6L97.219,257.279z"/>
		<path fill="#FFFFFF" d="M99.11,263c0-0.271,0.024-0.537,0.072-0.797c0.047-0.262,0.139-0.512,0.274-0.754
			c0.135-0.242,0.323-0.475,0.562-0.699c0.238-0.223,0.544-0.434,0.918-0.632c0.198-0.103,0.413-0.207,0.644-0.313
			c0.231-0.104,0.445-0.226,0.644-0.355c0.198-0.135,0.361-0.279,0.489-0.44c0.129-0.159,0.193-0.353,0.193-0.569
			c0-0.142-0.031-0.279-0.094-0.418c-0.062-0.142-0.154-0.267-0.275-0.375c-0.121-0.109-0.271-0.197-0.451-0.266
			s-0.387-0.1-0.621-0.1c-0.242,0-0.46,0.033-0.654,0.104c-0.194,0.069-0.365,0.152-0.512,0.247
			c-0.146,0.097-0.27,0.196-0.368,0.304c-0.1,0.105-0.175,0.191-0.226,0.258l-0.495-0.537c0.044-0.047,0.128-0.125,0.253-0.242
			s0.288-0.232,0.489-0.354c0.202-0.117,0.44-0.223,0.715-0.312c0.275-0.092,0.585-0.139,0.93-0.139c0.33,0,0.625,0.047,0.886,0.139
			c0.26,0.092,0.482,0.219,0.665,0.38c0.184,0.161,0.323,0.349,0.418,0.558c0.096,0.209,0.144,0.431,0.144,0.666
			c0,0.307-0.071,0.571-0.215,0.797c-0.143,0.224-0.317,0.416-0.522,0.578c-0.205,0.158-0.416,0.293-0.633,0.396
			c-0.216,0.103-0.394,0.187-0.533,0.253c-0.33,0.146-0.604,0.289-0.825,0.429c-0.22,0.14-0.399,0.282-0.539,0.429
			c-0.139,0.147-0.243,0.311-0.313,0.484c-0.069,0.176-0.119,0.378-0.148,0.605h3.851V263H99.11z"/>
		<path fill="#FFFFFF" d="M110.397,260.833c0,0.345-0.074,0.653-0.221,0.931c-0.146,0.273-0.345,0.51-0.594,0.709
			c-0.249,0.197-0.541,0.352-0.874,0.457c-0.334,0.105-0.685,0.158-1.051,0.158c-0.389,0-0.748-0.061-1.078-0.182
			s-0.614-0.285-0.853-0.494c-0.239-0.209-0.424-0.453-0.556-0.732c-0.132-0.277-0.198-0.574-0.198-0.891
			c0-0.25,0.046-0.48,0.138-0.693c0.092-0.213,0.211-0.399,0.357-0.564s0.313-0.309,0.501-0.43c0.187-0.121,0.376-0.215,0.566-0.279
			c-0.176-0.074-0.341-0.164-0.495-0.271c-0.154-0.104-0.29-0.229-0.407-0.369c-0.117-0.139-0.211-0.293-0.28-0.461
			c-0.069-0.17-0.104-0.35-0.104-0.539c0-0.321,0.073-0.605,0.22-0.854c0.146-0.245,0.336-0.452,0.566-0.621
			c0.231-0.168,0.491-0.297,0.781-0.385s0.581-0.133,0.875-0.133c0.293,0,0.584,0.045,0.874,0.133s0.55,0.215,0.781,0.379
			c0.23,0.166,0.42,0.373,0.566,0.622s0.22,0.532,0.22,0.847c0,0.191-0.034,0.371-0.104,0.539c-0.069,0.169-0.165,0.324-0.286,0.467
			c-0.12,0.146-0.26,0.271-0.418,0.375c-0.157,0.105-0.324,0.195-0.5,0.271c0.213,0.072,0.414,0.174,0.604,0.303
			c0.191,0.128,0.357,0.275,0.501,0.444c0.143,0.169,0.257,0.358,0.341,0.571C110.354,260.354,110.397,260.584,110.397,260.833z
			 M109.638,260.777c0-0.264-0.059-0.496-0.176-0.697c-0.117-0.202-0.27-0.373-0.456-0.512c-0.188-0.142-0.398-0.246-0.633-0.319
			s-0.466-0.11-0.693-0.11c-0.241,0-0.479,0.039-0.709,0.115c-0.231,0.078-0.438,0.188-0.622,0.33
			c-0.183,0.145-0.329,0.318-0.439,0.523c-0.11,0.205-0.165,0.432-0.165,0.682c0,0.257,0.059,0.486,0.176,0.688
			c0.117,0.203,0.27,0.373,0.457,0.514c0.187,0.139,0.396,0.244,0.627,0.316c0.23,0.074,0.464,0.11,0.698,0.11
			c0.234,0,0.468-0.038,0.698-0.116c0.231-0.076,0.438-0.187,0.622-0.328c0.183-0.145,0.331-0.314,0.445-0.518
			C109.581,261.253,109.638,261.027,109.638,260.777z M106.008,257.214c0,0.213,0.052,0.401,0.154,0.566s0.234,0.305,0.396,0.419
			c0.162,0.113,0.342,0.199,0.539,0.258c0.198,0.059,0.396,0.088,0.595,0.088c0.19,0,0.387-0.029,0.588-0.088
			c0.202-0.059,0.384-0.146,0.545-0.264c0.161-0.118,0.293-0.262,0.396-0.43c0.103-0.17,0.154-0.359,0.154-0.572
			c0-0.205-0.048-0.393-0.143-0.557c-0.096-0.165-0.223-0.305-0.38-0.418c-0.158-0.111-0.337-0.199-0.539-0.259
			s-0.412-0.088-0.633-0.088c-0.22,0-0.431,0.03-0.632,0.093c-0.202,0.062-0.38,0.15-0.534,0.266
			c-0.153,0.113-0.276,0.256-0.368,0.424C106.054,256.822,106.008,257.009,106.008,257.214z"/>
		<path fill="#FFFFFF" d="M111.915,257.27l1.716,2.244l0.088,0.164l0.099-0.164l1.705-2.244h0.804l-2.189,2.881l2.189,2.852h-0.804
			l-1.705-2.23l-0.099-0.154l-0.088,0.154l-1.705,2.229h-0.814l2.189-2.851l-2.189-2.881H111.915L111.915,257.27z"/>
		<path fill="#FFFFFF" d="M116.887,259.402c0-0.373,0.071-0.726,0.215-1.051c0.143-0.326,0.337-0.609,0.583-0.854
			c0.245-0.242,0.537-0.434,0.874-0.572s0.7-0.209,1.089-0.209c0.411,0,0.788,0.076,1.133,0.227
			c0.345,0.149,0.641,0.365,0.886,0.645c0.246,0.279,0.438,0.621,0.578,1.029c0.139,0.406,0.209,0.863,0.209,1.369
			c0,0.791-0.07,1.48-0.209,2.072c-0.14,0.592-0.336,1.082-0.589,1.475c-0.253,0.393-0.556,0.684-0.907,0.875
			c-0.353,0.189-0.745,0.285-1.178,0.285c-0.513,0-0.975-0.129-1.386-0.385c-0.41-0.258-0.723-0.611-0.935-1.066l0.483-0.44
			c0.146,0.374,0.389,0.673,0.727,0.897c0.337,0.223,0.711,0.335,1.122,0.335c0.322,0,0.615-0.077,0.88-0.231
			c0.264-0.154,0.489-0.375,0.677-0.664c0.187-0.291,0.333-0.646,0.439-1.066c0.106-0.422,0.159-0.903,0.159-1.446
			c-0.161,0.435-0.438,0.776-0.83,1.034c-0.393,0.256-0.838,0.385-1.337,0.385c-0.374,0-0.724-0.066-1.05-0.203
			c-0.326-0.136-0.61-0.32-0.853-0.562c-0.242-0.237-0.433-0.52-0.572-0.842C116.956,260.114,116.887,259.77,116.887,259.402z
			 M119.637,257.379c-0.278,0-0.541,0.053-0.786,0.16c-0.246,0.105-0.462,0.25-0.649,0.434c-0.187,0.186-0.334,0.398-0.439,0.646
			c-0.106,0.245-0.16,0.508-0.16,0.783c0,0.279,0.056,0.541,0.165,0.787c0.11,0.246,0.257,0.461,0.44,0.646s0.397,0.328,0.644,0.437
			c0.245,0.104,0.508,0.157,0.786,0.157c0.278,0,0.543-0.053,0.792-0.157c0.249-0.106,0.468-0.252,0.654-0.437
			c0.188-0.185,0.334-0.396,0.44-0.646c0.106-0.246,0.159-0.508,0.159-0.787c0-0.271-0.055-0.527-0.165-0.773
			c-0.109-0.245-0.259-0.461-0.445-0.646c-0.188-0.188-0.403-0.334-0.649-0.439C120.178,257.432,119.915,257.379,119.637,257.379z"
			/>
		<path fill="#FFFFFF" d="M129.097,259.777c0,0.482-0.07,0.93-0.209,1.336c-0.14,0.406-0.332,0.76-0.578,1.057
			c-0.245,0.297-0.537,0.527-0.874,0.691c-0.338,0.166-0.704,0.248-1.101,0.248c-0.396,0-0.763-0.082-1.1-0.248
			c-0.338-0.164-0.629-0.396-0.875-0.691c-0.245-0.297-0.438-0.648-0.577-1.057c-0.14-0.406-0.209-0.854-0.209-1.336
			c0-0.484,0.069-0.93,0.209-1.338c0.14-0.406,0.332-0.758,0.577-1.057c0.246-0.297,0.537-0.527,0.875-0.697
			c0.337-0.168,0.704-0.252,1.1-0.252s0.763,0.084,1.101,0.252c0.337,0.17,0.629,0.4,0.874,0.697
			c0.246,0.299,0.438,0.648,0.578,1.057C129.026,258.848,129.097,259.293,129.097,259.777z M128.337,259.777
			c0-0.396-0.049-0.756-0.148-1.078s-0.236-0.6-0.412-0.83c-0.176-0.23-0.387-0.411-0.633-0.539
			c-0.245-0.129-0.515-0.193-0.809-0.193c-0.301,0-0.573,0.064-0.819,0.193c-0.246,0.128-0.456,0.309-0.633,0.539
			c-0.176,0.23-0.313,0.508-0.412,0.83c-0.099,0.322-0.148,0.682-0.148,1.078c0,0.396,0.05,0.755,0.148,1.078
			c0.099,0.32,0.236,0.6,0.412,0.83c0.177,0.229,0.387,0.406,0.633,0.531s0.519,0.188,0.819,0.188c0.294,0,0.563-0.062,0.809-0.188
			c0.246-0.125,0.457-0.303,0.633-0.531c0.176-0.23,0.313-0.51,0.412-0.83C128.288,260.532,128.337,260.173,128.337,259.777z"/>
	</g>
	<g>
		<path fill="#FFFFFF" d="M14.298,38.723v0.682h-3.729v-0.682h1.562v-4.708c-0.065,0.088-0.169,0.184-0.308,0.286
			c-0.14,0.103-0.296,0.198-0.468,0.286s-0.351,0.161-0.533,0.22c-0.184,0.059-0.345,0.088-0.484,0.088v-0.726
			c0.169,0,0.354-0.048,0.556-0.143c0.201-0.095,0.393-0.205,0.572-0.33c0.18-0.125,0.331-0.242,0.456-0.352
			c0.125-0.11,0.194-0.183,0.209-0.22h0.771v5.599H14.298z"/>
		<path fill="#FFFFFF" d="M15.101,39.405c0-0.271,0.024-0.537,0.072-0.797c0.047-0.26,0.139-0.512,0.274-0.753
			c0.136-0.242,0.323-0.475,0.562-0.699c0.239-0.224,0.544-0.435,0.918-0.632c0.198-0.103,0.413-0.207,0.644-0.313
			s0.445-0.226,0.644-0.358c0.198-0.132,0.361-0.278,0.489-0.44c0.129-0.161,0.193-0.352,0.193-0.572
			c0-0.139-0.031-0.279-0.094-0.418c-0.063-0.139-0.154-0.264-0.275-0.374c-0.121-0.11-0.271-0.198-0.451-0.264
			c-0.18-0.066-0.387-0.099-0.621-0.099c-0.242,0-0.46,0.035-0.654,0.104c-0.194,0.07-0.365,0.152-0.512,0.248
			c-0.146,0.096-0.27,0.196-0.368,0.303c-0.1,0.106-0.175,0.192-0.226,0.258l-0.496-0.54c0.044-0.044,0.128-0.125,0.253-0.242
			c0.125-0.117,0.288-0.235,0.489-0.352c0.202-0.117,0.44-0.222,0.715-0.313c0.275-0.092,0.585-0.138,0.93-0.138
			c0.33,0,0.625,0.046,0.886,0.138c0.26,0.092,0.482,0.218,0.665,0.379c0.184,0.162,0.323,0.347,0.418,0.556
			c0.096,0.209,0.144,0.431,0.144,0.666c0,0.308-0.071,0.574-0.215,0.797c-0.143,0.224-0.317,0.416-0.522,0.578
			c-0.205,0.161-0.416,0.293-0.633,0.396c-0.216,0.103-0.394,0.187-0.533,0.253c-0.33,0.146-0.604,0.29-0.825,0.429
			c-0.22,0.14-0.399,0.283-0.539,0.429c-0.139,0.147-0.243,0.308-0.313,0.484c-0.069,0.176-0.119,0.378-0.148,0.605h3.851v0.682
			L15.101,39.405L15.101,39.405z"/>
		<path fill="#FFFFFF" d="M26.553,36.182c0,0.484-0.07,0.93-0.209,1.336c-0.14,0.407-0.332,0.759-0.578,1.056
			c-0.245,0.297-0.537,0.528-0.874,0.693c-0.338,0.165-0.704,0.248-1.101,0.248c-0.396,0-0.763-0.083-1.1-0.248
			c-0.338-0.165-0.629-0.396-0.875-0.693c-0.245-0.297-0.438-0.649-0.577-1.056c-0.14-0.407-0.209-0.852-0.209-1.336
			s0.069-0.929,0.209-1.336c0.14-0.407,0.332-0.759,0.577-1.056c0.246-0.297,0.537-0.529,0.875-0.698
			c0.337-0.168,0.704-0.253,1.1-0.253s0.763,0.084,1.101,0.253c0.337,0.169,0.629,0.401,0.874,0.698
			c0.246,0.297,0.438,0.649,0.578,1.056C26.482,35.252,26.553,35.698,26.553,36.182z M25.793,36.182
			c0-0.396-0.049-0.755-0.148-1.078s-0.236-0.6-0.412-0.831c-0.176-0.231-0.387-0.411-0.633-0.539
			c-0.245-0.128-0.515-0.192-0.809-0.192c-0.301,0-0.573,0.064-0.819,0.192c-0.246,0.128-0.456,0.308-0.633,0.539
			c-0.176,0.231-0.313,0.508-0.412,0.831c-0.099,0.323-0.148,0.682-0.148,1.078s0.05,0.755,0.148,1.078
			c0.098,0.323,0.236,0.6,0.412,0.831c0.177,0.231,0.387,0.409,0.633,0.534c0.246,0.125,0.519,0.187,0.819,0.187
			c0.294,0,0.563-0.062,0.809-0.187s0.457-0.303,0.633-0.534c0.176-0.231,0.313-0.508,0.412-0.831
			C25.744,36.937,25.793,36.578,25.793,36.182z"/>
		<path fill="#FFFFFF" d="M16.696,46.874l1.716,2.244l0.088,0.165l0.099-0.165l1.705-2.244h0.804l-2.189,2.883l2.189,2.849h-0.804
			l-1.705-2.233L18.5,50.218l-0.088,0.153l-1.705,2.233h-0.814l2.189-2.849l-2.189-2.883h0.803V46.874z"/>
		<path fill="#FFFFFF" d="M14.573,63.231c0,0.374-0.071,0.725-0.215,1.051c-0.143,0.326-0.337,0.61-0.583,0.853
			c-0.245,0.242-0.537,0.433-0.874,0.572c-0.338,0.139-0.7,0.209-1.089,0.209c-0.411,0-0.788-0.075-1.133-0.226
			c-0.345-0.151-0.643-0.365-0.892-0.644c-0.249-0.279-0.441-0.622-0.577-1.028c-0.136-0.407-0.203-0.864-0.203-1.37
			c0-0.792,0.069-1.482,0.209-2.073c0.139-0.59,0.335-1.082,0.588-1.474c0.253-0.393,0.556-0.685,0.907-0.875
			c0.353-0.19,0.745-0.286,1.178-0.286c0.513,0,0.975,0.129,1.386,0.385c0.41,0.257,0.723,0.613,0.935,1.067l-0.483,0.44
			c-0.147-0.374-0.389-0.673-0.727-0.896c-0.337-0.224-0.711-0.336-1.122-0.336c-0.322,0-0.615,0.077-0.88,0.231
			c-0.264,0.153-0.489,0.376-0.676,0.665c-0.188,0.29-0.334,0.647-0.44,1.072c-0.106,0.426-0.159,0.906-0.159,1.441
			c0.161-0.433,0.438-0.777,0.83-1.034c0.392-0.257,0.838-0.385,1.337-0.385c0.374,0,0.724,0.067,1.05,0.203
			c0.326,0.136,0.611,0.323,0.853,0.562c0.242,0.238,0.433,0.519,0.572,0.841C14.504,62.52,14.573,62.865,14.573,63.231z
			 M11.823,65.255c0.278,0,0.541-0.054,0.786-0.16c0.246-0.104,0.463-0.251,0.649-0.434c0.188-0.184,0.334-0.398,0.44-0.644
			c0.105-0.246,0.159-0.508,0.159-0.787c0-0.278-0.055-0.54-0.165-0.786c-0.11-0.246-0.257-0.46-0.44-0.644
			c-0.183-0.184-0.399-0.328-0.648-0.435c-0.25-0.106-0.51-0.159-0.781-0.159c-0.278,0-0.543,0.053-0.792,0.159
			c-0.249,0.106-0.468,0.251-0.654,0.435c-0.188,0.184-0.334,0.397-0.44,0.644c-0.106,0.247-0.159,0.508-0.159,0.786
			c0,0.279,0.055,0.539,0.165,0.781c0.11,0.242,0.259,0.456,0.445,0.646c0.188,0.187,0.403,0.334,0.649,0.438
			C11.282,65.202,11.545,65.255,11.823,65.255z"/>
		<path fill="#FFFFFF" d="M21.218,62.583c0,0.483-0.07,0.929-0.209,1.336c-0.14,0.407-0.332,0.759-0.578,1.057
			c-0.245,0.297-0.537,0.527-0.874,0.692c-0.338,0.165-0.704,0.248-1.101,0.248c-0.396,0-0.763-0.083-1.1-0.248
			c-0.338-0.165-0.629-0.396-0.875-0.692c-0.245-0.298-0.438-0.649-0.577-1.057c-0.139-0.408-0.209-0.853-0.209-1.336
			c0-0.484,0.069-0.93,0.209-1.337c0.14-0.407,0.332-0.759,0.577-1.056c0.246-0.297,0.537-0.53,0.875-0.699
			c0.337-0.168,0.704-0.253,1.1-0.253s0.763,0.085,1.101,0.253c0.337,0.169,0.629,0.402,0.874,0.699
			c0.246,0.297,0.438,0.648,0.578,1.056C21.147,61.653,21.218,62.098,21.218,62.583z M20.458,62.583
			c0-0.396-0.049-0.756-0.148-1.078c-0.099-0.323-0.236-0.6-0.412-0.831c-0.176-0.23-0.387-0.41-0.633-0.539
			c-0.245-0.128-0.515-0.192-0.809-0.192c-0.301,0-0.573,0.064-0.819,0.192c-0.246,0.129-0.456,0.309-0.633,0.539
			c-0.176,0.231-0.313,0.508-0.412,0.831c-0.099,0.322-0.148,0.682-0.148,1.078s0.05,0.755,0.148,1.078
			c0.099,0.322,0.236,0.599,0.412,0.83c0.177,0.23,0.387,0.409,0.633,0.533c0.246,0.125,0.519,0.188,0.819,0.188
			c0.294,0,0.563-0.062,0.809-0.188c0.246-0.124,0.457-0.303,0.633-0.533c0.176-0.231,0.313-0.508,0.412-0.83
			C20.409,63.337,20.458,62.978,20.458,62.583z"/>
		<path fill="#FFFFFF" d="M27.982,62.583c0,0.483-0.07,0.929-0.209,1.336c-0.14,0.407-0.332,0.759-0.578,1.057
			c-0.245,0.297-0.537,0.527-0.874,0.692c-0.338,0.165-0.704,0.248-1.101,0.248c-0.396,0-0.763-0.083-1.1-0.248
			c-0.338-0.165-0.629-0.396-0.875-0.692c-0.245-0.298-0.438-0.649-0.577-1.057s-0.209-0.853-0.209-1.336
			c0-0.484,0.069-0.93,0.209-1.337c0.14-0.407,0.332-0.759,0.577-1.056c0.246-0.297,0.537-0.53,0.875-0.699
			c0.337-0.168,0.704-0.253,1.1-0.253s0.763,0.085,1.101,0.253c0.337,0.169,0.629,0.402,0.874,0.699
			c0.246,0.297,0.438,0.648,0.578,1.056C27.912,61.653,27.982,62.098,27.982,62.583z M27.223,62.583
			c0-0.396-0.049-0.756-0.148-1.078c-0.099-0.323-0.236-0.6-0.412-0.831c-0.176-0.23-0.387-0.41-0.633-0.539
			c-0.245-0.128-0.515-0.192-0.809-0.192c-0.301,0-0.573,0.064-0.819,0.192c-0.246,0.129-0.456,0.309-0.633,0.539
			c-0.176,0.231-0.313,0.508-0.412,0.831c-0.099,0.322-0.148,0.682-0.148,1.078s0.05,0.755,0.148,1.078
			c0.099,0.322,0.236,0.599,0.412,0.83c0.177,0.23,0.387,0.409,0.633,0.533c0.246,0.125,0.519,0.188,0.819,0.188
			c0.294,0,0.563-0.062,0.809-0.188c0.246-0.124,0.457-0.303,0.633-0.533c0.176-0.231,0.313-0.508,0.412-0.83
			C27.174,63.337,27.223,62.978,27.223,62.583z"/>
	</g>
	<g>
		<path fill="#FFFFFF" d="M263.298,38.723v0.682h-3.729v-0.682h1.562v-4.708c-0.064,0.088-0.169,0.184-0.308,0.286
			c-0.14,0.103-0.296,0.198-0.468,0.286s-0.353,0.161-0.533,0.22c-0.184,0.059-0.346,0.088-0.484,0.088v-0.726
			c0.169,0,0.354-0.048,0.557-0.143c0.201-0.095,0.394-0.205,0.571-0.33c0.181-0.125,0.331-0.242,0.456-0.352
			c0.125-0.11,0.194-0.183,0.209-0.22h0.771v5.599H263.298z"/>
		<path fill="#FFFFFF" d="M264.102,39.405c0-0.271,0.023-0.537,0.071-0.797c0.048-0.26,0.14-0.512,0.274-0.753
			c0.136-0.242,0.322-0.475,0.562-0.699c0.239-0.224,0.544-0.435,0.918-0.632c0.198-0.103,0.413-0.207,0.644-0.313
			c0.231-0.106,0.445-0.226,0.646-0.358c0.198-0.132,0.361-0.278,0.489-0.44c0.129-0.161,0.191-0.352,0.191-0.572
			c0-0.139-0.029-0.279-0.094-0.418c-0.062-0.139-0.154-0.264-0.275-0.374c-0.119-0.11-0.271-0.198-0.449-0.264
			c-0.182-0.066-0.389-0.099-0.621-0.099c-0.242,0-0.46,0.035-0.652,0.104c-0.195,0.07-0.365,0.152-0.514,0.248
			c-0.146,0.096-0.271,0.196-0.368,0.303c-0.101,0.106-0.175,0.192-0.226,0.258l-0.495-0.539c0.044-0.044,0.128-0.125,0.253-0.242
			c0.125-0.117,0.288-0.235,0.488-0.352c0.201-0.117,0.439-0.222,0.716-0.313c0.274-0.092,0.585-0.138,0.93-0.138
			c0.33,0,0.625,0.046,0.888,0.138c0.26,0.092,0.48,0.218,0.664,0.379c0.185,0.162,0.322,0.347,0.418,0.556s0.145,0.431,0.145,0.666
			c0,0.308-0.071,0.574-0.215,0.797c-0.144,0.224-0.317,0.416-0.522,0.578c-0.204,0.161-0.416,0.293-0.633,0.396
			c-0.216,0.103-0.394,0.187-0.533,0.253c-0.329,0.146-0.604,0.29-0.825,0.429c-0.22,0.14-0.397,0.283-0.539,0.429
			c-0.139,0.147-0.242,0.308-0.312,0.484c-0.067,0.176-0.119,0.378-0.147,0.605h3.852v0.682h-4.723v-0.002H264.102z"/>
		<path fill="#FFFFFF" d="M275.553,36.182c0,0.484-0.07,0.93-0.209,1.336c-0.14,0.407-0.332,0.759-0.578,1.056
			c-0.244,0.297-0.537,0.528-0.873,0.693c-0.338,0.165-0.705,0.248-1.102,0.248s-0.764-0.083-1.1-0.248
			c-0.338-0.165-0.629-0.396-0.875-0.693c-0.246-0.297-0.438-0.649-0.578-1.056c-0.139-0.407-0.209-0.852-0.209-1.336
			s0.07-0.929,0.209-1.336c0.141-0.407,0.332-0.759,0.578-1.056s0.537-0.529,0.875-0.698c0.336-0.168,0.703-0.253,1.1-0.253
			s0.764,0.084,1.102,0.253c0.336,0.169,0.629,0.401,0.873,0.698c0.246,0.297,0.438,0.649,0.578,1.056
			C275.482,35.252,275.553,35.698,275.553,36.182z M274.793,36.182c0-0.396-0.049-0.755-0.148-1.078
			c-0.099-0.323-0.234-0.6-0.412-0.831c-0.176-0.231-0.387-0.411-0.633-0.539c-0.244-0.128-0.515-0.192-0.809-0.192
			c-0.301,0-0.573,0.064-0.818,0.192c-0.246,0.128-0.457,0.308-0.634,0.539c-0.176,0.231-0.313,0.508-0.411,0.831
			c-0.1,0.323-0.148,0.682-0.148,1.078s0.051,0.755,0.148,1.078c0.098,0.323,0.235,0.6,0.411,0.831
			c0.177,0.231,0.388,0.409,0.634,0.534c0.245,0.125,0.52,0.187,0.818,0.187c0.294,0,0.562-0.062,0.809-0.187
			c0.248-0.125,0.457-0.303,0.633-0.534c0.178-0.231,0.313-0.508,0.412-0.831C274.744,36.937,274.793,36.578,274.793,36.182z"/>
		<path fill="#FFFFFF" d="M265.695,46.874l1.717,2.244l0.088,0.165l0.1-0.165l1.705-2.244h0.803l-2.188,2.883l2.188,2.849h-0.803
			l-1.705-2.233l-0.1-0.153l-0.088,0.153l-1.705,2.233h-0.814l2.189-2.849l-2.189-2.883H265.695z"/>
		<path fill="#FFFFFF" d="M263.573,63.231c0,0.374-0.071,0.725-0.216,1.051c-0.144,0.326-0.336,0.61-0.582,0.853
			c-0.246,0.242-0.537,0.433-0.875,0.572s-0.699,0.209-1.088,0.209c-0.412,0-0.789-0.075-1.133-0.226
			c-0.347-0.151-0.645-0.365-0.894-0.644c-0.249-0.279-0.441-0.622-0.577-1.028c-0.136-0.407-0.203-0.864-0.203-1.37
			c0-0.792,0.069-1.482,0.209-2.073c0.141-0.59,0.335-1.082,0.59-1.474c0.252-0.393,0.555-0.685,0.905-0.875
			c0.354-0.19,0.745-0.286,1.179-0.286c0.514,0,0.976,0.129,1.387,0.385c0.41,0.257,0.723,0.613,0.935,1.067l-0.483,0.44
			c-0.146-0.374-0.389-0.673-0.727-0.896c-0.337-0.224-0.711-0.336-1.122-0.336c-0.321,0-0.614,0.077-0.88,0.231
			c-0.264,0.153-0.489,0.376-0.676,0.665c-0.188,0.29-0.334,0.647-0.44,1.072c-0.106,0.426-0.159,0.906-0.159,1.441
			c0.162-0.433,0.438-0.777,0.83-1.034c0.393-0.257,0.838-0.385,1.338-0.385c0.373,0,0.725,0.067,1.049,0.203
			c0.326,0.136,0.611,0.323,0.854,0.562c0.242,0.238,0.435,0.519,0.572,0.841C263.504,62.52,263.573,62.865,263.573,63.231z
			 M260.823,65.255c0.278,0,0.54-0.054,0.786-0.16c0.246-0.104,0.463-0.251,0.647-0.434c0.188-0.184,0.334-0.398,0.44-0.644
			c0.104-0.246,0.158-0.508,0.158-0.787c0-0.278-0.056-0.54-0.166-0.786c-0.108-0.246-0.256-0.46-0.438-0.644
			c-0.185-0.184-0.397-0.328-0.647-0.435c-0.25-0.106-0.511-0.159-0.781-0.159c-0.277,0-0.543,0.053-0.791,0.159
			c-0.249,0.106-0.469,0.251-0.654,0.435c-0.188,0.184-0.334,0.397-0.439,0.644c-0.105,0.247-0.16,0.508-0.16,0.786
			c0,0.279,0.057,0.539,0.166,0.781c0.109,0.242,0.26,0.456,0.445,0.646c0.188,0.187,0.402,0.334,0.648,0.438
			C260.282,65.202,260.545,65.255,260.823,65.255z"/>
		<path fill="#FFFFFF" d="M270.218,62.583c0,0.483-0.069,0.929-0.209,1.336c-0.14,0.407-0.332,0.759-0.577,1.057
			c-0.246,0.297-0.537,0.527-0.875,0.692s-0.703,0.248-1.101,0.248c-0.396,0-0.763-0.083-1.101-0.248s-0.629-0.396-0.875-0.692
			c-0.244-0.298-0.438-0.649-0.576-1.057c-0.139-0.408-0.209-0.853-0.209-1.336c0-0.484,0.067-0.93,0.209-1.337
			c0.14-0.407,0.332-0.759,0.576-1.056c0.246-0.297,0.537-0.53,0.875-0.699c0.338-0.168,0.705-0.253,1.101-0.253
			s0.763,0.085,1.101,0.253c0.338,0.169,0.629,0.402,0.875,0.699c0.245,0.297,0.438,0.648,0.577,1.056
			C270.146,61.653,270.218,62.098,270.218,62.583z M269.458,62.583c0-0.396-0.049-0.756-0.147-1.078
			c-0.1-0.323-0.235-0.6-0.412-0.831c-0.176-0.23-0.387-0.41-0.633-0.539c-0.246-0.128-0.516-0.192-0.81-0.192
			c-0.301,0-0.573,0.064-0.819,0.192c-0.246,0.129-0.455,0.309-0.633,0.539c-0.176,0.231-0.312,0.508-0.412,0.831
			c-0.099,0.322-0.148,0.682-0.148,1.078s0.052,0.755,0.148,1.078c0.1,0.322,0.236,0.599,0.412,0.83
			c0.178,0.23,0.387,0.409,0.633,0.533c0.246,0.125,0.521,0.188,0.819,0.188c0.294,0,0.563-0.062,0.81-0.188
			c0.246-0.124,0.457-0.303,0.633-0.533c0.177-0.231,0.312-0.508,0.412-0.83C269.409,63.337,269.458,62.978,269.458,62.583z"/>
		<path fill="#FFFFFF" d="M276.982,62.583c0,0.483-0.07,0.929-0.209,1.336c-0.142,0.407-0.332,0.759-0.578,1.057
			c-0.245,0.297-0.537,0.527-0.875,0.692s-0.703,0.248-1.102,0.248c-0.396,0-0.763-0.083-1.1-0.248
			c-0.34-0.165-0.629-0.396-0.875-0.692c-0.245-0.298-0.438-0.649-0.577-1.057s-0.209-0.853-0.209-1.336
			c0-0.484,0.067-0.93,0.209-1.337c0.142-0.407,0.332-0.759,0.577-1.056c0.246-0.297,0.535-0.53,0.875-0.699
			c0.337-0.168,0.703-0.253,1.1-0.253s0.764,0.085,1.102,0.253c0.338,0.169,0.63,0.402,0.875,0.699
			c0.246,0.297,0.438,0.648,0.578,1.056C276.912,61.653,276.982,62.098,276.982,62.583z M276.223,62.583
			c0-0.396-0.049-0.756-0.146-1.078c-0.1-0.323-0.236-0.6-0.412-0.831c-0.178-0.23-0.389-0.41-0.635-0.539
			c-0.243-0.128-0.514-0.192-0.809-0.192c-0.301,0-0.572,0.064-0.818,0.192c-0.245,0.129-0.457,0.309-0.633,0.539
			c-0.177,0.231-0.312,0.508-0.412,0.831c-0.1,0.322-0.147,0.682-0.147,1.078s0.05,0.755,0.147,1.078
			c0.1,0.322,0.235,0.599,0.412,0.83c0.176,0.23,0.388,0.409,0.633,0.533c0.246,0.125,0.52,0.188,0.818,0.188
			c0.295,0,0.563-0.062,0.809-0.188c0.246-0.124,0.457-0.303,0.635-0.533c0.176-0.231,0.312-0.508,0.412-0.83
			C276.174,63.337,276.223,62.978,276.223,62.583z"/>
	</g>
	<g>
		<path fill="#FFFFFF" d="M196.168,203.468c0.468,0.077,0.842,0.29,1.121,0.637c0.28,0.348,0.419,0.775,0.419,1.285
			c0,0.319-0.058,0.612-0.175,0.877c-0.117,0.266-0.283,0.492-0.499,0.68c-0.217,0.188-0.475,0.333-0.776,0.437
			c-0.301,0.104-0.635,0.153-1.004,0.153c-0.537,0-1.01-0.108-1.413-0.323c-0.403-0.216-0.708-0.516-0.913-0.897l0.499-0.457
			c0.148,0.312,0.375,0.559,0.68,0.743s0.688,0.276,1.147,0.276c0.532,0,0.949-0.13,1.254-0.388s0.457-0.628,0.457-1.109
			c0-0.489-0.16-0.876-0.478-1.159c-0.319-0.282-0.78-0.425-1.382-0.425h-0.266v-0.616h0.287c0.546,0,0.963-0.127,1.254-0.382
			c0.29-0.256,0.436-0.585,0.436-0.988c0-0.213-0.039-0.399-0.118-0.559c-0.077-0.159-0.185-0.294-0.323-0.403
			c-0.138-0.109-0.301-0.193-0.488-0.25c-0.188-0.056-0.392-0.084-0.61-0.084c-0.405,0-0.761,0.089-1.068,0.27
			c-0.308,0.182-0.541,0.431-0.695,0.75l-0.469-0.445c0.086-0.185,0.206-0.354,0.362-0.506c0.154-0.151,0.332-0.281,0.53-0.388
			s0.419-0.189,0.659-0.25c0.241-0.061,0.488-0.09,0.744-0.09c0.325,0,0.624,0.046,0.897,0.138c0.271,0.092,0.508,0.222,0.706,0.388
			c0.198,0.167,0.353,0.366,0.462,0.602c0.111,0.232,0.165,0.491,0.165,0.775c0,0.212-0.032,0.415-0.096,0.61
			c-0.063,0.194-0.156,0.367-0.276,0.521c-0.12,0.152-0.267,0.28-0.44,0.383S196.388,203.439,196.168,203.468z"/>
		<path fill="#FFFFFF" d="M204.146,202.862c0,0.467-0.067,0.897-0.201,1.291c-0.135,0.393-0.32,0.732-0.559,1.02
			c-0.237,0.287-0.519,0.51-0.844,0.669c-0.326,0.16-0.681,0.239-1.062,0.239c-0.384,0-0.736-0.079-1.063-0.239
			c-0.325-0.159-0.607-0.382-0.844-0.669c-0.238-0.287-0.424-0.627-0.559-1.02c-0.135-0.394-0.202-0.824-0.202-1.291
			c0-0.468,0.067-0.897,0.202-1.291c0.135-0.393,0.32-0.733,0.559-1.02c0.236-0.288,0.519-0.513,0.844-0.675
			c0.327-0.164,0.68-0.244,1.063-0.244c0.382,0,0.736,0.08,1.062,0.244c0.325,0.162,0.606,0.387,0.844,0.675
			c0.238,0.286,0.424,0.627,0.559,1.02C204.079,201.965,204.146,202.395,204.146,202.862z M203.413,202.862
			c0-0.383-0.048-0.729-0.144-1.041c-0.095-0.312-0.228-0.579-0.398-0.802c-0.169-0.224-0.374-0.397-0.609-0.521
			c-0.238-0.123-0.499-0.186-0.781-0.186c-0.291,0-0.554,0.062-0.792,0.186c-0.237,0.124-0.44,0.298-0.61,0.521
			c-0.171,0.223-0.304,0.489-0.399,0.802c-0.096,0.312-0.144,0.658-0.144,1.041s0.048,0.729,0.144,1.041s0.229,0.579,0.399,0.803
			c0.17,0.223,0.373,0.395,0.61,0.516c0.238,0.12,0.501,0.179,0.792,0.179c0.282,0,0.543-0.059,0.781-0.179
			c0.235-0.121,0.44-0.293,0.609-0.516c0.171-0.224,0.304-0.491,0.398-0.803C203.365,203.592,203.413,203.245,203.413,202.862z"/>
		<path fill="#FFFFFF" d="M210.681,202.862c0,0.467-0.067,0.897-0.201,1.291c-0.135,0.393-0.321,0.732-0.559,1.02
			s-0.52,0.51-0.844,0.669c-0.327,0.16-0.681,0.239-1.063,0.239s-0.736-0.079-1.062-0.239c-0.325-0.159-0.607-0.382-0.845-0.669
			s-0.424-0.627-0.558-1.02c-0.135-0.394-0.202-0.824-0.202-1.291c0-0.468,0.067-0.897,0.202-1.291
			c0.134-0.393,0.32-0.733,0.558-1.02c0.237-0.288,0.52-0.513,0.845-0.675c0.326-0.164,0.68-0.244,1.062-0.244
			s0.736,0.08,1.063,0.244c0.324,0.162,0.606,0.387,0.844,0.675c0.237,0.286,0.424,0.627,0.559,1.02
			C210.613,201.965,210.681,202.395,210.681,202.862z M209.947,202.862c0-0.383-0.048-0.729-0.144-1.041
			c-0.095-0.312-0.229-0.579-0.398-0.802c-0.169-0.224-0.374-0.397-0.61-0.521c-0.237-0.123-0.498-0.186-0.781-0.186
			c-0.29,0-0.555,0.062-0.791,0.186c-0.237,0.124-0.441,0.298-0.611,0.521c-0.17,0.223-0.304,0.489-0.398,0.802
			c-0.096,0.312-0.144,0.658-0.144,1.041s0.048,0.729,0.144,1.041c0.095,0.312,0.229,0.579,0.398,0.803
			c0.17,0.223,0.374,0.395,0.611,0.516c0.236,0.12,0.501,0.179,0.791,0.179c0.283,0,0.544-0.059,0.781-0.179
			c0.236-0.121,0.441-0.293,0.61-0.516c0.17-0.224,0.304-0.491,0.398-0.803C209.899,203.592,209.947,203.245,209.947,202.862z"/>
		<path fill="#FFFFFF" d="M212.189,200.439l1.658,2.168l0.084,0.159l0.096-0.159l1.646-2.168h0.776l-2.114,2.783l2.114,2.752h-0.776
			l-1.646-2.155l-0.096-0.149l-0.084,0.149l-1.648,2.155h-0.785l2.114-2.752l-2.114-2.783H212.189z"/>
		<path fill="#FFFFFF" d="M222.548,203.489c0,0.36-0.068,0.699-0.208,1.015c-0.138,0.315-0.325,0.589-0.562,0.823
			c-0.236,0.233-0.52,0.418-0.844,0.552c-0.327,0.135-0.678,0.202-1.053,0.202c-0.397,0-0.761-0.072-1.094-0.218
			c-0.334-0.146-0.619-0.352-0.861-0.622c-0.24-0.269-0.427-0.6-0.557-0.992c-0.132-0.394-0.197-0.834-0.197-1.323
			c0-0.765,0.067-1.433,0.202-2.003c0.135-0.569,0.323-1.044,0.568-1.424c0.244-0.379,0.536-0.659,0.876-0.844
			c0.341-0.185,0.719-0.276,1.138-0.276c0.496,0,0.941,0.124,1.339,0.371c0.396,0.248,0.696,0.592,0.902,1.031l-0.468,0.425
			c-0.142-0.361-0.375-0.649-0.701-0.866c-0.325-0.216-0.687-0.324-1.083-0.324c-0.312,0-0.596,0.074-0.851,0.223
			c-0.255,0.149-0.473,0.363-0.653,0.645c-0.181,0.279-0.322,0.624-0.425,1.035c-0.104,0.411-0.153,0.875-0.153,1.392
			c0.155-0.418,0.422-0.751,0.802-0.998c0.378-0.248,0.81-0.372,1.291-0.372c0.361,0,0.698,0.065,1.015,0.196
			c0.314,0.131,0.59,0.312,0.822,0.542c0.234,0.229,0.418,0.501,0.553,0.812S222.548,203.135,222.548,203.489z M219.893,205.443
			c0.269,0,0.521-0.051,0.759-0.154c0.238-0.102,0.446-0.241,0.627-0.419s0.322-0.384,0.426-0.621
			c0.102-0.237,0.153-0.491,0.153-0.76c0-0.27-0.054-0.521-0.159-0.76c-0.106-0.237-0.248-0.444-0.426-0.622
			c-0.177-0.177-0.387-0.315-0.627-0.419c-0.241-0.104-0.491-0.154-0.753-0.154c-0.27,0-0.524,0.051-0.765,0.154
			c-0.242,0.104-0.452,0.242-0.633,0.419c-0.181,0.178-0.322,0.385-0.426,0.622c-0.104,0.238-0.153,0.49-0.153,0.76
			c0,0.269,0.053,0.521,0.159,0.754s0.249,0.44,0.431,0.622c0.18,0.181,0.389,0.322,0.626,0.424
			C219.369,205.393,219.623,205.443,219.893,205.443z"/>
		<path fill="#FFFFFF" d="M228.965,202.862c0,0.467-0.067,0.897-0.201,1.291c-0.135,0.393-0.32,0.732-0.559,1.02
			c-0.236,0.287-0.519,0.51-0.844,0.669c-0.325,0.16-0.681,0.239-1.062,0.239c-0.383,0-0.736-0.079-1.062-0.239
			c-0.326-0.159-0.607-0.382-0.845-0.669c-0.238-0.287-0.423-0.627-0.559-1.02c-0.135-0.394-0.202-0.824-0.202-1.291
			c0-0.468,0.067-0.897,0.202-1.291c0.136-0.393,0.32-0.733,0.559-1.02c0.237-0.288,0.519-0.513,0.845-0.675
			c0.326-0.164,0.68-0.244,1.062-0.244c0.382,0,0.737,0.08,1.062,0.244c0.325,0.162,0.607,0.387,0.844,0.675
			c0.238,0.286,0.424,0.627,0.559,1.02C228.897,201.965,228.965,202.395,228.965,202.862z M228.232,202.862
			c0-0.383-0.048-0.729-0.144-1.041c-0.096-0.312-0.229-0.579-0.398-0.802c-0.17-0.224-0.373-0.397-0.61-0.521
			c-0.238-0.123-0.498-0.186-0.781-0.186c-0.29,0-0.554,0.062-0.792,0.186c-0.237,0.124-0.44,0.298-0.61,0.521
			c-0.171,0.223-0.304,0.489-0.398,0.802c-0.096,0.312-0.144,0.658-0.144,1.041s0.048,0.729,0.144,1.041
			c0.095,0.312,0.228,0.579,0.398,0.803c0.17,0.223,0.373,0.395,0.61,0.516c0.238,0.12,0.502,0.179,0.792,0.179
			c0.283,0,0.543-0.059,0.781-0.179c0.237-0.121,0.44-0.293,0.61-0.516c0.17-0.224,0.303-0.491,0.398-0.803
			S228.232,203.245,228.232,202.862z"/>
		<path fill="#FFFFFF" d="M235.499,202.862c0,0.467-0.067,0.897-0.201,1.291c-0.135,0.393-0.321,0.732-0.559,1.02
			c-0.236,0.287-0.52,0.51-0.844,0.669c-0.325,0.16-0.681,0.239-1.062,0.239c-0.383,0-0.737-0.079-1.062-0.239
			c-0.326-0.159-0.608-0.382-0.846-0.669c-0.236-0.287-0.423-0.627-0.557-1.02c-0.136-0.394-0.203-0.824-0.203-1.291
			c0-0.468,0.067-0.897,0.203-1.291c0.134-0.393,0.32-0.733,0.557-1.02c0.237-0.288,0.52-0.513,0.846-0.675
			c0.325-0.164,0.68-0.244,1.062-0.244c0.382,0,0.737,0.08,1.062,0.244c0.324,0.162,0.607,0.387,0.844,0.675
			c0.237,0.286,0.424,0.627,0.559,1.02C235.432,201.965,235.499,202.395,235.499,202.862z M234.766,202.862
			c0-0.383-0.047-0.729-0.143-1.041c-0.095-0.312-0.229-0.579-0.398-0.802c-0.17-0.224-0.374-0.397-0.611-0.521
			c-0.237-0.123-0.497-0.186-0.78-0.186c-0.29,0-0.554,0.062-0.792,0.186c-0.237,0.124-0.441,0.298-0.61,0.521
			c-0.171,0.223-0.304,0.489-0.399,0.802c-0.096,0.312-0.143,0.658-0.143,1.041s0.047,0.729,0.143,1.041s0.229,0.579,0.399,0.803
			c0.169,0.223,0.373,0.395,0.61,0.516c0.238,0.12,0.502,0.179,0.792,0.179c0.283,0,0.543-0.059,0.78-0.179
			c0.237-0.121,0.441-0.293,0.611-0.516c0.169-0.224,0.304-0.491,0.398-0.803C234.719,203.592,234.766,203.245,234.766,202.862z"/>
	</g>
</g>
</svg>
