<?xml version="1.0" encoding="utf-8"?>
<!-- Generator: Adobe Illustrator 16.0.0, SVG Export Plug-In . SVG Version: 6.00 Build 0)  -->
<!DOCTYPE svg PUBLIC "-//W3C//DTD SVG 1.1//EN" "http://www.w3.org/Graphics/SVG/1.1/DTD/svg11.dtd">
<svg version="1.1" id="Layer_1" xmlns="http://www.w3.org/2000/svg" xmlns:xlink="http://www.w3.org/1999/xlink" x="0px" y="0px"
	 width="216.891px" height="211.849px" viewBox="0 0 216.891 211.849" enable-background="new 0 0 216.891 211.849"
	 xml:space="preserve">
<g>
	<path fill-rule="evenodd" clip-rule="evenodd" fill="#242021" d="M96.164,142.17c0.035-5.401,0.4-10.253,0.995-15.091
		c0.132-1.072,0.551-0.707,1.054-0.312c2.992,2.348,6.188,4.332,9.742,5.746c3.889,1.546,7.907,2.438,12.074,2.682
		c1.635,0.095,1.635,0.057,1.567,1.681c-0.249,5.961-0.138,11.91,0.944,17.794c1.299,7.068,3.705,13.677,8.449,19.237
		c5.309,6.225,12.035,9.653,20.215,10.31c7.12,0.57,13.859-0.487,19.949-4.415c5.502-3.549,9.346-8.512,11.871-14.5
		c2.83-6.706,3.902-13.753,4.057-21c0.096-4.521,0.01-9.021-0.643-13.49c-1.308-8.949-4.254-17.176-10.907-23.666
		c-4.235-4.131-9.308-6.633-15.155-7.52c-0.754-0.115-0.764-0.492-0.752-1.057c0.082-4.309-0.564-8.512-1.9-12.605
		c-0.843-2.58-1.951-5.042-3.352-7.373c-0.164-0.271-0.604-0.543-0.346-0.929c0.26-0.389,0.74-0.25,1.12-0.232
		c5.146,0.24,10.276,0.513,15.341,1.627c6.91,1.521,13.377,4.027,18.992,8.376c8.139,6.305,14.36,14.096,18.066,23.811
		c3.062,8.027,4.523,16.335,4.896,24.891c0.215,4.92,0.207,9.831-0.208,14.728c-0.791,9.332-2.921,18.323-7.237,26.71
		c-3.07,5.964-7.238,11.073-12.127,15.629c-4.898,4.566-10.616,7.729-16.954,9.767c-5.153,1.657-10.472,2.486-15.875,2.834
		c-4.718,0.303-9.424,0.229-14.118-0.246c-9.984-1.009-19.36-3.777-27.311-10.173c-6.932-5.577-12.402-12.369-16.07-20.529
		c-3.583-7.975-5.408-16.373-6.024-25.072C96.326,147.068,96.254,144.356,96.164,142.17z"/>
	<path fill-rule="evenodd" clip-rule="evenodd" fill="#FEE502" d="M40.533,115.008c-1.874-3.348-3.359-6.852-4.251-10.596
		c-0.802-3.371-1.004-6.801-0.835-10.24c0.342-6.977,2.609-13.316,6.586-19.045c0.977-1.406,2.021-2.767,3.257-3.964
		c0.09,0.02,0.18,0.039,0.27,0.059c1.988,2.339,4.399,4.144,7.148,5.471c7.896,3.813,15.759,3.66,23.562-0.315
		c0.241,0.361,0.49,0.719,0.723,1.086c2.279,3.619,5.055,6.795,8.426,9.438c0.021,0.115,0.043,0.23,0.063,0.345
		c-0.106,0.831-0.376,1.631-0.518,2.446c-0.935,5.4-0.898,10.811,0.54,16.105c1.637,6.024,4.357,11.518,8.732,16.098
		c0.547,0.572,1.262,1.121,1.288,2.057l-0.019,0.017c-1.39,0.528-2.462,1.566-3.65,2.391c-5.346,3.71-11.328,5.471-17.723,5.935
		c-4.42,0.32-8.761-0.188-13.024-1.545c-3.518-1.119-6.778-2.665-9.852-4.693c-1.042-0.688-1.831-1.748-3.088-2.113l-0.005-0.008
		c-0.26-0.645-0.8-0.973-1.396-1.238l0,0c-0.01-0.307-0.17-0.467-0.476-0.483v-0.001c-0.683-1.2-1.775-2.058-2.628-3.117
		c-0.351-0.436-0.509-1.108-1.213-1.201l0,0C42.028,116.787,41.523,115.736,40.533,115.008z"/>
	<path fill-rule="evenodd" clip-rule="evenodd" fill="#F6921D" d="M145.418,52.395c0.059,0.561,0.117,1.121,0.176,1.682
		c-0.277,0.35-0.292,0.672,0.095,0.957c0.002,0.16,0.006,0.321,0.008,0.482c-0.337,1.106,0.104,2.229-0.068,3.34
		c-0.125,0.805-0.471,1.609-0.017,2.418c-0.063,0.641-0.126,1.28-0.19,1.92c-0.314,0.221-0.279,0.502-0.137,0.801
		c-0.031,0.133-0.063,0.267-0.096,0.4c-0.357,0.197-0.293,0.487-0.17,0.789c-0.059,0.359-0.117,0.721-0.175,1.08
		c-1.538-0.486-2.651-1.676-4.022-2.432c-5.561-3.067-11.504-4.806-17.865-4.945c-3.959-0.088-7.828,0.465-11.666,1.57
		c-4.272,1.23-8.145,3.168-11.684,5.78c-1.056,0.779-2.329,1.396-2.977,2.661c-0.208,0.026-0.416,0.053-0.625,0.078
		c-2.639-2.095-5.288-4.173-8.417-5.52c-0.038-0.086-0.075-0.173-0.113-0.26c0.478-0.727,0.795-1.541,0.99-2.369
		c0.607-2.567,0.849-5.17,0.8-7.821c-0.099-5.327-1.99-9.964-5.086-14.21c-1.303-1.785-3.104-3.082-4.469-4.796
		c4.358-5.171,9.691-8.967,16.058-11.254c5.681-2.041,11.501-2.685,17.53-1.897c8.335,1.088,15.445,4.617,21.431,10.408
		c3.193,3.092,5.76,6.695,7.559,10.8c0.006,0.524,0.047,1.032,0.637,1.263c0.049,0.205,0.099,0.41,0.148,0.615
		c-0.104,0.299-0.004,0.498,0.293,0.602c0.152,0.434,0.305,0.869,0.456,1.304c-0.118,0.279-0.063,0.495,0.228,0.626
		c0.082,0.272,0.164,0.545,0.246,0.818c-0.15,0.279-0.045,0.476,0.205,0.625c0.033,0.217,0.066,0.434,0.099,0.65
		c-0.214,0.486,0.06,0.84,0.331,1.193c0.041,0.293,0.082,0.585,0.123,0.878c-0.139,0.243-0.113,0.438,0.164,0.56
		c0.021,0.135,0.041,0.27,0.061,0.404C145.146,51.895,145.105,52.176,145.418,52.395z"/>
	<path fill-rule="evenodd" clip-rule="evenodd" fill="#FBC589" d="M96.629,68.898c0.649-1.266,1.922-1.882,2.978-2.661
		c3.539-2.612,7.411-4.55,11.684-5.78c3.838-1.105,7.707-1.658,11.666-1.57c6.361,0.14,12.305,1.878,17.865,4.945
		c1.371,0.756,2.484,1.945,4.022,2.432c-1.175,4.845-3.183,9.286-6.096,13.362c-2.96,4.141-6.611,7.468-10.909,10.141
		c-3.553,2.208-7.414,3.662-11.473,4.534c-2.354,0.504-4.74,1.017-7.189,0.833c-0.279-0.021-0.563-0.003-0.787,0.21
		c-0.546,0.002-1.129,0.127-1.629-0.023c-0.808-0.244-1.803,0.194-2.438-0.657c1.047-0.172,2.041,0.321,3.09,0.226
		c0.713-0.064,1.035-0.314,0.865-1.055c-0.264-1.147-0.276-2.338-0.455-3.496c-0.342-2.21-0.797-4.363-1.566-6.439
		c-0.791-2.136-1.688-4.244-2.885-6.188c-1.81-2.935-3.912-5.654-6.381-8.074C96.781,69.43,96.667,69.186,96.629,68.898z"/>
	<path fill-rule="evenodd" clip-rule="evenodd" fill="#0CB04B" d="M45.56,71.222c-0.09-0.02-0.18-0.039-0.27-0.059
		c-1.755-2.272-3.36-4.622-4.5-7.29c-1.906-4.463-2.405-9.098-1.661-13.834c0.785-4.996,2.912-9.413,6.385-13.139
		c3.735-4.009,8.271-6.578,13.664-7.625c6.98-1.355,13.396,0.021,19.289,3.95c0.327,0.218,0.622,0.484,0.933,0.729
		c-0.206,0.753-0.743,1.31-1.188,1.907c-2.854,3.84-4.761,8.133-5.968,12.725c-0.967,3.678-1.251,7.449-1.021,11.251
		c-3.04-0.12-5.997,0.313-8.927,1.146c-2.633,0.748-5.119,1.799-7.601,2.941c-1.867,0.859-3.477,2.08-5.014,3.32
		C48.216,68.428,46.52,69.476,45.56,71.222z"/>
	<path fill-rule="evenodd" clip-rule="evenodd" fill="#03B1DE" d="M33.812,66.954c0.055,7.954-6.073,14.765-14.684,14.826
		C10.739,81.84,4.741,75.31,4.333,67.916c-0.497-9.018,6.652-15.512,14.189-15.629C27.23,52.151,33.731,58.444,33.812,66.954z"/>
	<path fill-rule="evenodd" clip-rule="evenodd" fill="#FDF097" d="M104.324,94.663c0.635,0.852,1.63,0.413,2.438,0.657
		c0.5,0.15,1.083,0.025,1.629,0.023c-0.098,4.172-0.717,8.221-1.958,12.252c-1.078,3.498-2.871,6.571-4.645,9.67
		c-0.889,1.554-2.081,3.008-3.464,4.199c-0.947,0.814-1.594,1.969-2.799,2.486c-0.026-0.936-0.741-1.484-1.288-2.057
		c-4.375-4.58-7.096-10.073-8.732-16.098c-1.438-5.295-1.475-10.705-0.54-16.105c0.142-0.815,0.411-1.615,0.517-2.447
		c2.635,1.773,5.254,3.574,8.204,4.812c2.419,1.015,4.854,1.972,7.516,2.132c0.309,0.648,0.897,0.648,1.488,0.645
		C103.234,94.775,103.779,94.719,104.324,94.663z"/>
	<path fill-rule="evenodd" clip-rule="evenodd" fill="#928C3B" d="M71.223,59.837c-0.229-3.802,0.055-7.573,1.021-11.251
		c1.207-4.592,3.113-8.885,5.968-12.725c0.444-0.598,0.981-1.154,1.188-1.907c0.104,0.016,0.206,0.03,0.31,0.046
		c1.365,1.715,3.167,3.012,4.47,4.797c3.096,4.246,4.987,8.883,5.086,14.21c0.049,2.651-0.192,5.254-0.8,7.821
		c-0.195,0.828-0.513,1.643-0.99,2.369c-1.109-0.092-1.988-0.789-2.996-1.143c-4.272-1.501-8.663-2.334-13.208-2.238L71.223,59.837z
		"/>
	<path fill-rule="evenodd" clip-rule="evenodd" fill="#03B1DE" d="M90.851,15.867c0.007,5.629-4.329,10.069-9.843,10.044
		c-5.688-0.026-10.089-4.22-10.131-9.956c-0.043-5.838,4.495-9.997,9.982-10.085C86.334,5.781,91.081,10.506,90.851,15.867z"/>
	<path fill-rule="evenodd" clip-rule="evenodd" fill="#FDF097" d="M48.169,123.941c1.257,0.365,2.046,1.426,3.088,2.113
		c3.073,2.028,6.334,3.574,9.852,4.693c4.264,1.356,8.604,1.865,13.024,1.545c6.395-0.464,12.377-2.225,17.723-5.935
		c1.188-0.824,2.261-1.862,3.65-2.391c-0.943,1.507-2.526,2.255-3.933,3.156c-5.274,3.381-11.071,5.223-17.326,5.692
		c-4.619,0.348-9.08-0.298-13.497-1.642c-4.549-1.383-8.542-3.716-12.232-6.642C48.323,124.379,48.166,124.209,48.169,123.941z"/>
	<path fill-rule="evenodd" clip-rule="evenodd" fill="#FDF097" d="M42.452,117.893c0.704,0.093,0.862,0.766,1.213,1.201
		c0.853,1.06,1.945,1.917,2.628,3.117c-0.838-0.127-1.261-0.827-1.702-1.391C43.848,119.871,42.77,119.152,42.452,117.893z"/>
	<path fill-rule="evenodd" clip-rule="evenodd" fill="#FBC589" d="M145.612,61.273c-0.454-0.809-0.108-1.613,0.017-2.418
		c0.172-1.111-0.269-2.233,0.068-3.34c0.529,0.564,0.373,1.27,0.377,1.932C146.082,58.74,146.078,60.036,145.612,61.273z"/>
	<path fill-rule="evenodd" clip-rule="evenodd" fill="#FDF097" d="M40.533,115.008c0.99,0.729,1.495,1.779,1.919,2.885
		C41.444,117.176,40.875,116.168,40.533,115.008z"/>
	<path fill-rule="evenodd" clip-rule="evenodd" fill="#FDF097" d="M46.769,122.695c0.596,0.266,1.136,0.594,1.396,1.238
		C47.385,123.875,46.941,123.438,46.769,122.695z"/>
	<path fill-rule="evenodd" clip-rule="evenodd" fill="#FBC589" d="M142.923,43.32c-0.59-0.23-0.631-0.738-0.637-1.263
		C142.885,42.283,142.882,42.812,142.923,43.32z"/>
	<path fill-rule="evenodd" clip-rule="evenodd" fill="#FBC589" d="M144.929,49.754c-0.271-0.354-0.545-0.707-0.331-1.193
		C144.976,48.884,145.187,49.254,144.929,49.754z"/>
	<path fill-rule="evenodd" clip-rule="evenodd" fill="#FBC589" d="M145.689,55.033c-0.387-0.285-0.372-0.607-0.095-0.957
		C145.958,54.362,145.972,54.683,145.689,55.033z"/>
	<path fill-rule="evenodd" clip-rule="evenodd" fill="#FBC589" d="M145.418,52.395c-0.313-0.219-0.272-0.5-0.142-0.799
		C145.634,51.808,145.709,52.068,145.418,52.395z"/>
	<path fill-rule="evenodd" clip-rule="evenodd" fill="#FBC589" d="M145.285,63.994c-0.143-0.299-0.178-0.58,0.137-0.801
		C145.707,63.518,145.628,63.777,145.285,63.994z"/>
	<path fill-rule="evenodd" clip-rule="evenodd" fill="#FBC589" d="M145.019,65.184c-0.123-0.302-0.188-0.592,0.17-0.789
		C145.502,64.737,145.375,64.985,145.019,65.184z"/>
	<path fill-rule="evenodd" clip-rule="evenodd" fill="#FBC589" d="M144.048,46.467c-0.291-0.131-0.346-0.347-0.228-0.626
		C144.141,45.961,144.211,46.172,144.048,46.467z"/>
	<path fill-rule="evenodd" clip-rule="evenodd" fill="#FBC589" d="M144.5,47.91c-0.25-0.149-0.355-0.346-0.205-0.625
		C144.617,47.41,144.69,47.617,144.5,47.91z"/>
	<path fill-rule="evenodd" clip-rule="evenodd" fill="#FBC589" d="M143.365,44.537c-0.297-0.104-0.397-0.303-0.293-0.602
		C143.367,44.039,143.506,44.219,143.365,44.537z"/>
	<path fill-rule="evenodd" clip-rule="evenodd" fill="#FDF097" d="M46.293,122.212c0.306,0.017,0.466,0.177,0.476,0.483
		C46.434,122.708,46.269,122.553,46.293,122.212z"/>
	<path fill-rule="evenodd" clip-rule="evenodd" fill="#FBC589" d="M145.216,51.191c-0.277-0.121-0.303-0.316-0.164-0.56
		C145.285,50.768,145.496,50.908,145.216,51.191z"/>
	<path fill-rule="evenodd" clip-rule="evenodd" fill="#02994A" d="M45.56,71.222c0.96-1.746,2.656-2.794,4.122-3.978
		c1.537-1.24,3.146-2.461,5.014-3.32c2.481-1.143,4.968-2.193,7.601-2.941c2.93-0.832,5.887-1.266,8.927-1.146l0.048-0.021
		c0.461,3.301,0.771,6.632,1.891,9.805c0.807,2.289,1.628,4.576,3.12,6.54c-0.022,0.071-0.026,0.143-0.012,0.216
		c-7.803,3.976-15.665,4.129-23.562,0.315C49.959,75.365,47.548,73.561,45.56,71.222z"/>
	<path fill-rule="evenodd" clip-rule="evenodd" fill="#F8A97E" d="M104.324,94.663c-0.545,0.056-1.09,0.112-1.635,0.169
		c-0.312-0.639-0.899-0.645-1.488-0.645c-2.662-0.16-5.097-1.117-7.516-2.132c-2.95-1.237-5.569-3.038-8.204-4.812
		c-0.02-0.113-0.041-0.229-0.062-0.343c0.132-0.281,0.306-0.552,0.39-0.847c1.421-5.043,3.912-9.506,7.168-13.594
		c0.964-1.209,2.295-2.088,3.029-3.484c0.209-0.025,0.417-0.052,0.625-0.078c0.037,0.287,0.151,0.531,0.361,0.738
		c2.469,2.42,4.572,5.14,6.381,8.074c1.196,1.943,2.094,4.052,2.885,6.188c0.77,2.076,1.225,4.229,1.566,6.439
		c0.179,1.158,0.191,2.349,0.455,3.496c0.17,0.74-0.152,0.99-0.865,1.055C106.365,94.984,105.371,94.491,104.324,94.663z"/>
	<path fill-rule="evenodd" clip-rule="evenodd" fill="#EF5B23" d="M96.005,68.977c-0.734,1.396-2.065,2.275-3.029,3.484
		c-3.256,4.088-5.747,8.551-7.168,13.594c-0.084,0.295-0.258,0.565-0.39,0.847c-3.371-2.644-6.146-5.819-8.426-9.438
		c-0.232-0.367-0.481-0.725-0.723-1.086c-0.015-0.073-0.011-0.145,0.012-0.216c2.655-1.052,4.608-3.026,6.58-4.984
		c1.968-1.956,3.161-4.407,4.426-6.816c0.146-0.015,0.206-0.091,0.171-0.236c0.043-0.223,0.087-0.445,0.13-0.667
		C90.717,64.804,93.366,66.882,96.005,68.977z"/>
	<path fill-rule="evenodd" clip-rule="evenodd" fill="#46802B" d="M87.588,63.457c-0.043,0.222-0.087,0.444-0.13,0.667
		c-0.057,0.079-0.114,0.157-0.171,0.236c-1.265,2.409-2.458,4.86-4.426,6.816c-1.972,1.958-3.925,3.933-6.58,4.984
		c-1.492-1.964-2.313-4.251-3.12-6.54c-1.119-3.173-1.43-6.504-1.891-9.805c4.545-0.096,8.936,0.737,13.208,2.238
		c1.008,0.354,1.887,1.051,2.996,1.143C87.513,63.284,87.55,63.371,87.588,63.457z"/>
	<path fill-rule="evenodd" clip-rule="evenodd" fill="#FBC589" d="M101.201,94.188c0.589,0,1.176,0.006,1.488,0.645
		C102.098,94.836,101.509,94.836,101.201,94.188z"/>
	<path fill-rule="evenodd" clip-rule="evenodd" fill="#928C3B" d="M87.287,64.36c0.057-0.079,0.114-0.157,0.171-0.236
		C87.493,64.27,87.434,64.346,87.287,64.36z"/>
</g>
</svg>
